<svg xmlns="http://www.w3.org/2000/svg" xmlns:xlink="http://www.w3.org/1999/xlink" width="208" height="50.24" viewBox="0 0 208 50.24">
  <defs>
    <style>
      .cls-1 {
        fill: none;
      }

      .cls-2 {
        clip-path: url(#clip-path);
      }

      .cls-3 {
        fill: #fff;
      }

      .cls-4 {
        fill: #99bdc9;
      }

      .cls-5 {
        fill: #59ab94;
      }

      .cls-6 {
        fill: #009963;
      }

      .cls-7 {
        fill: #21d182;
      }
    </style>
    <clipPath id="clip-path">
      <rect class="cls-1" width="208" height="50.24"/>
    </clipPath>
  </defs>
  <g id="Layer_2" data-name="Layer 2">
    <g id="Layer_1-2" data-name="Layer 1">
      <g>
        <g class="cls-2">
          <path class="cls-3" d="M2.42,47.52H5.48a9.84,9.84,0,0,0,2.91-.42,7.13,7.13,0,0,0,2.42-1.25,6,6,0,0,0,1.64-2.08,6.71,6.71,0,0,0,.6-2.92,9,9,0,0,0-.27-2,6.18,6.18,0,0,0-1-2.18,6.29,6.29,0,0,0-2.14-1.75,7.53,7.53,0,0,0-3.53-.72H2.42ZM0,31.91H6.24a11.83,11.83,0,0,1,3.32.43A9,9,0,0,1,12,33.49a7.23,7.23,0,0,1,1.74,1.65,9.36,9.36,0,0,1,1.1,1.92,10,10,0,0,1,.58,2,10.26,10.26,0,0,1,.18,1.82A9,9,0,0,1,15,44.17,8.4,8.4,0,0,1,13.13,47a9.1,9.1,0,0,1-3.07,2,10.9,10.9,0,0,1-4.23.76H0Z"/>
        </g>
        <rect class="cls-3" x="20.37" y="31.91" width="2.42" height="17.87"/>
        <g class="cls-2">
          <path class="cls-3" d="M44.1,39.79V48.6a7.82,7.82,0,0,1-1.48.71,15.93,15.93,0,0,1-1.74.51,13.71,13.71,0,0,1-1.81.32,15.33,15.33,0,0,1-1.73.1,10.12,10.12,0,0,1-4.05-.76,8.67,8.67,0,0,1-4.88-5,10.11,10.11,0,0,1-.64-3.6,9.65,9.65,0,0,1,.7-3.71,9.12,9.12,0,0,1,1.91-3,8.86,8.86,0,0,1,2.94-2,9.67,9.67,0,0,1,3.77-.72,11.25,11.25,0,0,1,4,.62,7.47,7.47,0,0,1,2.62,1.7L42,35.62a6.46,6.46,0,0,0-2.34-1.47,8,8,0,0,0-2.6-.42,6.49,6.49,0,0,0-4.9,2.1,6.71,6.71,0,0,0-1.37,2.26,7.89,7.89,0,0,0-.47,2.76,7.3,7.3,0,0,0,.53,2.82,6.76,6.76,0,0,0,3.66,3.76,6.88,6.88,0,0,0,2.75.54,11.78,11.78,0,0,0,2.43-.24,6.92,6.92,0,0,0,2-.69v-5H38.21V39.79Z"/>
        </g>
        <rect class="cls-3" x="50.31" y="31.91" width="2.42" height="17.87"/>
        <polygon class="cls-3" points="57.38 31.91 57.38 34.19 63.14 34.19 63.14 49.79 65.56 49.79 65.56 34.19 71.32 34.19 71.32 31.91 57.38 31.91"/>
        <path class="cls-3" d="M80.94,35h0l3.33,8.21H77.56Zm-1-3.13L72.1,49.79h2.83l1.77-4.42h8.51L87,49.79h2.83L82.18,31.91Z"/>
        <polygon class="cls-3" points="94.29 31.91 94.29 49.79 104.92 49.79 104.92 47.52 96.72 47.52 96.72 31.91 94.29 31.91"/>
        <g class="cls-2">
          <path class="cls-3" d="M112.75,47.06h2.93A12.23,12.23,0,0,0,117,47a4,4,0,0,0,1.27-.36,2.46,2.46,0,0,0,1-.79,2.35,2.35,0,0,0,.38-1.4,2.11,2.11,0,0,0-.92-2,5.74,5.74,0,0,0-2.87-.56h-3Zm0-7.88h2.9a3.88,3.88,0,0,0,2.39-.61,2,2,0,0,0,.79-1.63,2,2,0,0,0-.82-1.73,4.72,4.72,0,0,0-2.64-.57h-2.62Zm-3.18-7.27h7a8.42,8.42,0,0,1,2,.24,4.9,4.9,0,0,1,1.75.79,4.12,4.12,0,0,1,1.25,1.4,4.17,4.17,0,0,1,.48,2.07,3.64,3.64,0,0,1-.86,2.5,4.72,4.72,0,0,1-2.24,1.41v0a4.58,4.58,0,0,1,1.55.47,4.08,4.08,0,0,1,1.23.93,4.42,4.42,0,0,1,1.08,2.92,4.66,4.66,0,0,1-.58,2.44,4.75,4.75,0,0,1-1.53,1.56,6.65,6.65,0,0,1-2.17.85,12.8,12.8,0,0,1-2.48.25h-6.44Z"/>
          <path class="cls-3" d="M133,39.49c.45,0,.91,0,1.36-.06a4.41,4.41,0,0,0,1.25-.31,2.07,2.07,0,0,0,.92-.73,2.31,2.31,0,0,0,.36-1.38,2.18,2.18,0,0,0-.33-1.26,2,2,0,0,0-.86-.72,3.87,3.87,0,0,0-1.17-.31,10.9,10.9,0,0,0-1.25-.08h-2.75v4.85Zm-5.65-7.58h6.21a12.64,12.64,0,0,1,2.48.24,6.41,6.41,0,0,1,2.14.83,4.3,4.3,0,0,1,1.49,1.56,5.68,5.68,0,0,1-.52,5.76,4.66,4.66,0,0,1-3.07,1.59l4.75,7.9H137l-4.14-7.57h-2.32v7.57h-3.18Z"/>
        </g>
        <rect class="cls-3" x="145.67" y="31.91" width="3.18" height="17.87"/>
        <g class="cls-2">
          <path class="cls-3" d="M160.34,46.91a11.1,11.1,0,0,0,2.81-.34,6.81,6.81,0,0,0,2.31-1.06A5,5,0,0,0,167,43.64a6.19,6.19,0,0,0,.57-2.79,7.08,7.08,0,0,0-.5-2.78,5,5,0,0,0-1.4-1.88,6,6,0,0,0-2.12-1.06,10.37,10.37,0,0,0-2.69-.34H158V46.91Zm-5.56-15h7.05a10.53,10.53,0,0,1,3.4.55,8.3,8.3,0,0,1,2.91,1.65,8.16,8.16,0,0,1,2,2.79,9.63,9.63,0,0,1,.76,4,8.33,8.33,0,0,1-3.12,6.75,9.66,9.66,0,0,1-3.06,1.65,10.73,10.73,0,0,1-3.29.54h-6.67Z"/>
          <path class="cls-3" d="M190.88,48.48a15.51,15.51,0,0,1-7.39,1.76,10.36,10.36,0,0,1-3.8-.67,8.43,8.43,0,0,1-3-1.89,8.66,8.66,0,0,1-2-2.94,10,10,0,0,1-.71-3.81,10.38,10.38,0,0,1,.71-3.9,8.59,8.59,0,0,1,2-3,8.48,8.48,0,0,1,3-1.91,10.36,10.36,0,0,1,3.8-.67,14.3,14.3,0,0,1,3.83.49,7.91,7.91,0,0,1,3.21,1.76l-2.35,2.37a5.72,5.72,0,0,0-2.08-1.29,7.46,7.46,0,0,0-2.59-.45,6.18,6.18,0,0,0-2.51.49,5.77,5.77,0,0,0-1.93,1.36,6.12,6.12,0,0,0-1.25,2,6.89,6.89,0,0,0-.44,2.5,7.52,7.52,0,0,0,.44,2.65,6.14,6.14,0,0,0,1.25,2.1A5.85,5.85,0,0,0,181,46.86a6,6,0,0,0,2.51.51,11.18,11.18,0,0,0,2.29-.23,6.4,6.4,0,0,0,1.9-.71V42.21h-3.17V39.34h6.35Z"/>
        </g>
        <polygon class="cls-3" points="195.71 31.91 195.71 49.79 208 49.79 208 46.91 198.89 46.91 198.89 42.06 206.11 42.06 206.11 39.19 198.89 39.19 198.89 34.79 207.55 34.79 207.55 31.91 195.71 31.91"/>
        <polygon class="cls-3" points="114.19 20.76 109.55 22.44 109.55 24.77 114.19 24.77 114.19 20.76"/>
        <polygon class="cls-3" points="121.29 18.19 117.11 19.7 117.11 24.76 121.29 24.76 121.29 18.19"/>
        <polygon class="cls-4" points="128.06 15.73 124.3 17.1 124.3 24.77 128.06 24.77 128.06 15.73"/>
        <polygon class="cls-4" points="134.77 13.3 131.38 14.53 131.38 24.77 134.77 24.77 134.77 13.3"/>
        <polygon class="cls-5" points="141.55 10.84 138.51 11.94 138.51 24.77 141.55 24.77 141.55 10.84"/>
        <polygon class="cls-5" points="148.38 8.36 145.67 9.34 145.67 17.38 148.38 16.4 148.38 8.36"/>
        <polygon class="cls-6" points="155.8 5.67 153.39 6.55 153.39 14.59 155.8 13.71 155.8 5.67"/>
        <polygon class="cls-6" points="162.84 3.12 160.71 3.89 160.71 11.93 162.84 11.16 162.84 3.12"/>
        <polygon class="cls-7" points="168 1.25 168 9.29 169.85 8.62 169.85 0.57 168 1.25"/>
        <polygon class="cls-3" points="150.31 20.76 145.67 22.44 145.67 24.77 150.31 24.77 150.31 20.76"/>
        <polygon class="cls-3" points="157.56 18.13 153.39 19.65 153.39 24.76 157.56 24.76 157.56 18.13"/>
        <polygon class="cls-4" points="164.48 15.63 160.72 16.99 160.72 24.77 164.48 24.77 164.48 15.63"/>
        <polygon class="cls-4" points="171.38 13.12 168 14.35 168 24.76 171.38 24.76 171.38 13.12"/>
        <polygon class="cls-5" points="178.47 10.55 175.42 11.65 175.42 24.77 178.47 24.77 178.47 10.55"/>
        <polygon class="cls-5" points="185.59 7.96 182.88 8.95 182.88 24.77 185.59 24.77 185.59 7.96"/>
        <polygon class="cls-6" points="192.92 5.31 190.51 6.18 190.51 24.77 192.92 24.77 192.92 5.31"/>
        <polygon class="cls-6" points="200.15 2.69 198.02 3.46 198.02 24.76 200.15 24.76 200.15 2.69"/>
        <polygon class="cls-7" points="207.54 0 205.69 0.68 205.69 24.77 207.54 24.77 207.54 0"/>
      </g>
    </g>
  </g>
</svg>
