<?xml version="1.0" encoding="UTF-8"?><svg id="Layer_2" xmlns="http://www.w3.org/2000/svg" width="200" height="79.07" viewBox="0 0 200 79.07"><defs><style>.cls-1{fill:#f47835;}.cls-2{fill:#9e2d44;}.cls-3{fill:#d11c27;}.cls-4{fill:#808285;}</style></defs><g id="Layer_1-2"><g><path class="cls-3" d="M50.17,63.05c.47,1.3-.2,2.74-1.49,3.2-1.3,.47-2.72-.2-3.2-1.49-.47-1.29,.2-2.72,1.49-3.19,1.3-.47,2.72,.19,3.2,1.48"/><path class="cls-3" d="M47.4,57.29c.35,.97-.15,2.04-1.12,2.39-.97,.36-2.05-.15-2.4-1.12-.36-.97,.15-2.04,1.12-2.39,.97-.35,2.05,.15,2.4,1.12"/><path class="cls-3" d="M51.85,69.51c.35,.97-.15,2.04-1.12,2.39-.96,.35-2.05-.15-2.4-1.12-.35-.98,.14-2.05,1.12-2.4,.96-.35,2.04,.15,2.4,1.12"/><path class="cls-3" d="M53.23,75.06c.24,.66-.1,1.39-.76,1.64-.66,.24-1.39-.1-1.63-.77-.24-.66,.1-1.39,.76-1.63,.66-.24,1.39,.1,1.63,.76"/><path class="cls-3" d="M62.66,50.34c1.2,.69,1.6,2.22,.92,3.42-.69,1.19-2.21,1.59-3.41,.9-1.2-.69-1.59-2.21-.91-3.4,.69-1.19,2.21-1.6,3.4-.92"/><path class="cls-3" d="M56.84,47.71c.89,.51,1.19,1.66,.68,2.55-.52,.89-1.66,1.2-2.56,.68-.89-.52-1.2-1.66-.68-2.56,.52-.9,1.66-1.2,2.56-.68"/><path class="cls-3" d="M68.1,54.21c.89,.52,1.2,1.66,.69,2.56-.52,.9-1.66,1.21-2.55,.69-.9-.52-1.21-1.66-.69-2.56,.52-.89,1.66-1.19,2.56-.69"/><path class="cls-3" d="M72.73,57.57c.6,.36,.82,1.13,.47,1.75-.35,.61-1.13,.81-1.74,.46-.61-.36-.81-1.13-.47-1.74,.35-.61,1.13-.81,1.74-.47"/><path class="cls-2" d="M64.92,41.59c1.36,.24,2.27,1.54,2.02,2.9-.24,1.35-1.53,2.25-2.89,2.02-1.36-.24-2.25-1.53-2.01-2.88,.24-1.36,1.52-2.27,2.88-2.03"/><path class="cls-2" d="M58.55,41.1c1.01,.18,1.69,1.15,1.51,2.17-.17,1.01-1.15,1.7-2.17,1.52-1.01-.18-1.69-1.15-1.5-2.17,.17-1.02,1.14-1.7,2.16-1.52"/><path class="cls-2" d="M71.36,43.35c1.01,.19,1.69,1.16,1.52,2.17-.18,1.02-1.15,1.7-2.17,1.51-1.02-.17-1.7-1.15-1.52-2.16,.18-1.02,1.15-1.69,2.17-1.52"/><path class="cls-2" d="M76.86,44.93c.69,.12,1.15,.78,1.03,1.47-.12,.69-.79,1.15-1.48,1.03-.7-.13-1.16-.78-1.03-1.48,.12-.69,.78-1.15,1.48-1.03"/><path class="cls-3" d="M60.17,24.42c1.2-.69,2.73-.28,3.41,.91,.69,1.19,.28,2.71-.9,3.41-1.2,.69-2.72,.27-3.41-.92-.69-1.19-.29-2.72,.9-3.41"/><path class="cls-3" d="M54.98,28.14c.89-.51,2.03-.2,2.55,.69,.52,.89,.21,2.04-.69,2.56-.88,.51-2.04,.2-2.56-.69-.52-.9-.2-2.04,.69-2.56"/><path class="cls-3" d="M66.23,21.63c.89-.51,2.04-.2,2.56,.69,.51,.9,.21,2.04-.69,2.56-.89,.51-2.04,.21-2.55-.69-.52-.89-.21-2.03,.68-2.56"/><path class="cls-3" d="M71.46,19.31c.61-.35,1.39-.14,1.75,.46,.34,.61,.13,1.39-.47,1.74-.61,.35-1.38,.14-1.74-.47-.36-.6-.15-1.38,.46-1.74"/><path class="cls-2" d="M53.71,18.07c.89-1.06,2.48-1.19,3.52-.3,1.05,.89,1.19,2.46,.31,3.52-.89,1.05-2.47,1.18-3.51,.3-1.05-.89-1.2-2.46-.32-3.51"/><path class="cls-2" d="M50.11,23.35c.66-.79,1.85-.89,2.63-.23,.79,.66,.9,1.85,.23,2.64-.66,.78-1.85,.89-2.63,.24-.8-.67-.9-1.86-.23-2.64"/><path class="cls-2" d="M58.47,13.38c.66-.78,1.83-.89,2.64-.23,.79,.67,.9,1.85,.23,2.64-.67,.79-1.85,.89-2.64,.24-.78-.67-.88-1.85-.22-2.65"/><path class="cls-2" d="M62.58,9.41c.45-.53,1.26-.61,1.8-.16,.53,.45,.6,1.26,.16,1.79-.46,.54-1.26,.61-1.8,.16-.54-.45-.61-1.25-.16-1.79"/><path class="cls-2" d="M45.49,14.32c.47-1.29,1.92-1.96,3.2-1.49,1.29,.47,1.96,1.9,1.49,3.2-.47,1.3-1.91,1.95-3.19,1.48-1.3-.47-1.98-1.9-1.5-3.19"/><path class="cls-2" d="M43.9,20.51c.36-.97,1.43-1.47,2.4-1.12,.97,.35,1.47,1.43,1.12,2.41-.36,.96-1.43,1.47-2.39,1.12-.98-.35-1.47-1.44-1.12-2.41"/><path class="cls-2" d="M48.35,8.29c.35-.97,1.42-1.47,2.39-1.12,.98,.36,1.48,1.43,1.13,2.4-.35,.97-1.43,1.47-2.41,1.12-.97-.36-1.46-1.42-1.12-2.4"/><path class="cls-2" d="M50.86,3.15c.23-.66,.97-1,1.63-.76,.66,.23,1,.97,.76,1.63-.25,.66-.97,1-1.63,.76-.66-.24-1.01-.97-.76-1.63"/><path class="cls-2" d="M36.47,13.61c0-1.38,1.13-2.5,2.5-2.49,1.38,0,2.49,1.12,2.5,2.49,0,1.38-1.13,2.49-2.49,2.49s-2.51-1.11-2.51-2.49"/><path class="cls-2" d="M37.1,19.96c0-1.03,.84-1.86,1.87-1.87,1.03,0,1.87,.84,1.88,1.87,0,1.03-.84,1.87-1.88,1.88-1.04,0-1.87-.85-1.87-1.88"/><path class="cls-2" d="M37.09,6.96c0-1.03,.84-1.87,1.87-1.87,1.04,0,1.88,.84,1.88,1.87,0,1.04-.84,1.87-1.88,1.88-1.03,0-1.86-.84-1.87-1.88"/><path class="cls-2" d="M37.7,1.28C37.69,.58,38.26,0,38.97,0c.7,0,1.27,.57,1.27,1.27s-.57,1.27-1.27,1.28c-.7,0-1.27-.56-1.27-1.27"/><path class="cls-1" d="M41.45,65.47c0,1.38-1.12,2.5-2.5,2.5s-2.49-1.12-2.49-2.5,1.11-2.49,2.49-2.49,2.5,1.12,2.5,2.49"/><path class="cls-1" d="M40.83,59.11c0,1.03-.84,1.87-1.88,1.87s-1.87-.84-1.87-1.87,.84-1.88,1.87-1.88,1.88,.84,1.88,1.88"/><path class="cls-1" d="M40.83,72.11c0,1.04-.84,1.87-1.88,1.87s-1.87-.83-1.87-1.87,.84-1.87,1.87-1.87,1.88,.83,1.88,1.87"/><path class="cls-1" d="M40.22,77.8c0,.71-.57,1.28-1.27,1.28s-1.28-.57-1.28-1.28,.57-1.27,1.28-1.27,1.27,.57,1.27,1.27"/><path class="cls-3" d="M57.53,57.8c.88,1.06,.74,2.64-.31,3.52-1.06,.88-2.63,.75-3.52-.31-.88-1.05-.74-2.62,.31-3.5,1.06-.89,2.62-.76,3.51,.29"/><path class="cls-3" d="M52.96,53.33c.67,.79,.56,1.97-.23,2.63-.79,.66-1.97,.56-2.64-.23-.67-.79-.56-1.97,.23-2.64,.79-.67,1.97-.56,2.64,.23"/><path class="cls-3" d="M61.33,63.29c.65,.79,.55,1.97-.24,2.63-.8,.66-1.98,.56-2.64-.23-.66-.79-.56-1.97,.23-2.63,.8-.67,1.97-.56,2.65,.23"/><path class="cls-3" d="M64.53,68.03c.45,.54,.39,1.34-.16,1.8-.54,.45-1.34,.37-1.79-.17-.45-.53-.39-1.34,.15-1.79,.54-.45,1.34-.38,1.8,.15"/><path class="cls-3" d="M64.06,32.59c1.36-.24,2.66,.67,2.9,2.03,.24,1.35-.67,2.65-2.03,2.89-1.36,.24-2.65-.68-2.88-2.03-.24-1.35,.65-2.65,2.01-2.89"/><path class="cls-3" d="M57.91,34.3c1.01-.18,1.99,.5,2.17,1.52,.18,1.02-.5,1.99-1.53,2.17-1.01,.18-1.98-.5-2.16-1.52-.18-1.03,.49-1.99,1.52-2.17"/><path class="cls-3" d="M70.71,32.04c1.02-.17,1.98,.5,2.16,1.52,.18,1.02-.49,2-1.52,2.17-1.01,.18-1.99-.5-2.17-1.51-.18-1.02,.5-1.99,1.52-2.17"/><path class="cls-3" d="M76.42,31.65c.69-.12,1.35,.34,1.48,1.04,.12,.69-.34,1.35-1.03,1.47-.7,.12-1.35-.34-1.48-1.03-.12-.69,.34-1.36,1.03-1.48"/><path class="cls-3" d="M27.74,16.03c-.47-1.3,.21-2.74,1.49-3.2,1.3-.47,2.74,.2,3.21,1.49,.47,1.29-.21,2.72-1.5,3.18-1.3,.48-2.72-.18-3.2-1.47"/><path class="cls-3" d="M30.51,21.78c-.35-.96,.15-2.03,1.12-2.39,.97-.35,2.04,.15,2.4,1.12,.35,.96-.15,2.05-1.12,2.4-.98,.36-2.06-.16-2.4-1.13"/><path class="cls-3" d="M26.07,9.57c-.35-.97,.14-2.04,1.12-2.4,.97-.35,2.05,.14,2.4,1.11,.35,.98-.15,2.05-1.12,2.41-.97,.35-2.03-.15-2.39-1.12"/><path class="cls-3" d="M24.68,4.02c-.24-.65,.1-1.4,.76-1.64,.66-.24,1.39,.1,1.63,.77,.24,.66-.1,1.39-.76,1.63-.66,.24-1.39-.1-1.63-.76"/><path class="cls-3" d="M20.39,21.28c-.89-1.06-.74-2.64,.31-3.52,1.06-.88,2.64-.75,3.52,.3,.89,1.05,.74,2.62-.31,3.5-1.06,.89-2.62,.76-3.51-.29"/><path class="cls-3" d="M24.95,25.74c-.66-.78-.55-1.97,.23-2.63,.79-.66,1.97-.56,2.64,.23,.66,.78,.56,1.97-.23,2.64-.79,.67-1.98,.55-2.64-.24"/><path class="cls-3" d="M16.59,15.79c-.66-.79-.56-1.97,.23-2.63,.79-.67,1.98-.57,2.64,.22,.66,.79,.55,1.97-.24,2.64-.79,.66-1.97,.55-2.64-.23"/><path class="cls-3" d="M13.4,11.04c-.45-.54-.38-1.34,.16-1.8,.53-.45,1.34-.37,1.79,.16,.45,.54,.38,1.33-.16,1.79-.53,.45-1.33,.38-1.79-.16"/><path class="cls-1" d="M15.26,28.73c-1.2-.69-1.6-2.22-.91-3.4,.68-1.2,2.21-1.61,3.41-.92,1.18,.69,1.58,2.22,.9,3.4-.7,1.2-2.21,1.61-3.41,.93"/><path class="cls-1" d="M21.07,31.36c-.88-.51-1.19-1.65-.67-2.55,.51-.89,1.65-1.2,2.56-.69,.89,.52,1.2,1.66,.69,2.56-.53,.9-1.68,1.2-2.58,.67"/><path class="cls-1" d="M9.81,24.87c-.89-.52-1.2-1.65-.69-2.56,.52-.89,1.67-1.21,2.56-.69,.89,.52,1.19,1.66,.68,2.56-.52,.89-1.66,1.19-2.56,.68"/><path class="cls-1" d="M5.19,21.5c-.61-.35-.82-1.13-.47-1.74,.33-.61,1.13-.81,1.74-.46,.62,.36,.82,1.12,.47,1.74-.36,.6-1.13,.81-1.74,.46"/><path class="cls-3" d="M13,37.49c-1.36-.24-2.27-1.55-2.03-2.89,.24-1.35,1.54-2.27,2.89-2.03,1.36,.23,2.25,1.53,2.01,2.88-.24,1.36-1.52,2.27-2.88,2.04"/><path class="cls-3" d="M19.36,37.97c-1.01-.18-1.69-1.15-1.52-2.17,.18-1.01,1.15-1.69,2.17-1.52,1.01,.18,1.7,1.16,1.52,2.17-.18,1.03-1.16,1.7-2.18,1.51"/><path class="cls-3" d="M6.56,35.72c-1.01-.18-1.7-1.14-1.52-2.16,.18-1.02,1.16-1.71,2.17-1.53,1.02,.18,1.68,1.16,1.52,2.17-.19,1.02-1.16,1.69-2.17,1.52"/><path class="cls-3" d="M1.06,34.14c-.69-.12-1.16-.79-1.04-1.47,.11-.69,.78-1.16,1.48-1.03,.69,.13,1.14,.78,1.03,1.48-.13,.69-.78,1.14-1.48,1.03"/><path class="cls-1" d="M13.86,46.49c-1.36,.24-2.66-.68-2.89-2.02-.23-1.36,.67-2.66,2.02-2.9,1.37-.24,2.65,.67,2.88,2.03,.23,1.36-.65,2.66-2.01,2.9"/><path class="cls-1" d="M20.01,44.77c-1.01,.18-1.98-.5-2.16-1.52-.18-1.01,.5-1.99,1.52-2.17,1.01-.18,1.99,.51,2.18,1.52,.18,1.03-.51,1.99-1.53,2.16"/><path class="cls-1" d="M7.2,47.03c-1.01,.17-1.98-.5-2.17-1.52-.17-1.02,.5-2,1.52-2.18,1.01-.17,1.98,.51,2.17,1.53,.18,1.02-.51,1.98-1.52,2.17"/><path class="cls-1" d="M1.5,47.43c-.69,.12-1.36-.34-1.48-1.03-.12-.69,.34-1.35,1.03-1.48,.71-.12,1.35,.34,1.48,1.03,.12,.69-.34,1.34-1.03,1.47"/><path class="cls-3" d="M17.76,54.66c-1.2,.69-2.73,.27-3.42-.91-.68-1.2-.27-2.72,.91-3.42,1.19-.69,2.71-.26,3.39,.92,.69,1.2,.3,2.72-.89,3.41"/><path class="cls-3" d="M22.94,50.93c-.89,.52-2.03,.21-2.55-.68-.51-.89-.21-2.04,.69-2.56,.89-.52,2.05-.2,2.57,.69,.51,.9,.19,2.04-.7,2.55"/><path class="cls-3" d="M11.69,57.44c-.9,.51-2.04,.21-2.56-.68-.52-.91-.22-2.05,.68-2.57,.89-.51,2.03-.2,2.56,.69,.51,.89,.2,2.03-.68,2.55"/><path class="cls-3" d="M6.46,59.77c-.61,.35-1.39,.14-1.74-.47-.36-.6-.14-1.38,.46-1.74,.62-.35,1.38-.14,1.75,.47,.34,.61,.13,1.38-.47,1.74"/><path class="cls-2" d="M24.2,61c-.89,1.05-2.47,1.19-3.52,.3-1.05-.88-1.19-2.46-.31-3.51,.88-1.06,2.45-1.18,3.51-.3,1.06,.89,1.21,2.45,.32,3.51"/><path class="cls-2" d="M27.8,55.72c-.65,.79-1.84,.89-2.63,.24-.78-.66-.89-1.85-.22-2.65,.65-.78,1.84-.88,2.64-.23,.79,.67,.89,1.85,.21,2.64"/><path class="cls-2" d="M19.45,65.69c-.67,.79-1.84,.89-2.63,.23-.79-.68-.91-1.85-.25-2.64,.68-.79,1.85-.89,2.64-.23,.79,.67,.89,1.85,.23,2.64"/><path class="cls-2" d="M15.33,69.66c-.45,.54-1.25,.61-1.79,.16-.54-.44-.61-1.25-.16-1.79,.46-.55,1.25-.61,1.8-.17,.54,.46,.6,1.25,.15,1.8"/><path class="cls-3" d="M32.43,64.75c-.47,1.3-1.92,1.97-3.2,1.49-1.3-.47-1.96-1.91-1.5-3.2,.48-1.3,1.9-1.95,3.19-1.48,1.3,.47,1.97,1.9,1.51,3.19"/><path class="cls-3" d="M34.01,58.57c-.34,.97-1.42,1.46-2.39,1.12-.96-.35-1.46-1.43-1.11-2.4,.34-.96,1.43-1.46,2.4-1.12,.97,.35,1.47,1.44,1.1,2.4"/><path class="cls-3" d="M29.58,70.78c-.37,.97-1.43,1.48-2.39,1.12-.98-.37-1.49-1.43-1.14-2.4,.37-.97,1.44-1.46,2.41-1.12,.97,.35,1.47,1.43,1.12,2.39"/><path class="cls-3" d="M27.06,75.92c-.24,.66-.97,1-1.63,.77-.66-.23-1-.98-.76-1.64,.25-.66,.97-.99,1.64-.77,.66,.24,.99,.97,.75,1.64"/><path class="cls-4" d="M113.88,58.97h-16.9V20h16.71c6.77,0,10.94,4.01,10.94,10.26,0,3.31-1.72,6.51-5.09,8.16,4.21,1.46,6.18,5.02,6.18,9.36,0,6.38-4.65,11.2-11.85,11.2m-.02-18.53h-13.01v14.76h13.18c4.3,0,7.81-2.58,7.81-7.39s-3.12-7.37-7.99-7.37m-13.01-3.71h13.01c3.31,0,6.91-1.85,6.91-6.51,0-4.4-2.72-6.5-7.08-6.5h-12.84v13.01Z"/><path class="cls-4" d="M145.02,59.82c-8.25,0-14.62-4.82-14.62-12.88h3.98c0,5.87,4.72,9.13,10.64,9.13,7,0,10.74-3.01,10.74-7.81,0-3.78-1.98-6-10.74-7.6-8.06-1.46-13.48-4-13.48-10.69s5.32-10.79,13.46-10.79c8.7,0,13.56,4.99,13.56,11.92h-3.91c0-4.94-3.5-8.22-9.62-8.22s-9.58,2.89-9.58,6.99c0,3.66,2.29,5.53,10.38,7.08,8.61,1.66,13.81,4.09,13.81,11.31s-5.9,11.55-14.62,11.55"/><path class="cls-4" d="M197.72,22.47c.22,0,.45-.12,.45-.43s-.17-.44-.45-.44h-.84v.87h.84Zm.99,1.49h-.61l-.52-.99h-.7v.99h-.53v-2.86h1.37c.61,0,.98,.36,.98,.94,0,.41-.24,.73-.59,.87l.61,1.06Zm-1.31-3.48c-1.15,0-2.09,.94-2.09,2.12s.94,2.12,2.09,2.12,2.08-.95,2.08-2.12-.94-2.12-2.08-2.12m0,4.71c-1.44,0-2.61-1.17-2.61-2.59s1.16-2.6,2.61-2.6,2.6,1.15,2.6,2.6-1.16,2.59-2.6,2.59"/><path class="cls-4" d="M169.95,37.24h11.72c4.4,0,8.17-2.02,8.17-6.64s-2.76-6.79-8.17-6.79h-11.72v13.43Zm20.29,21.73c-.67-1.8-.68-5.56-.78-7-.32-5.3-.74-11.19-7.58-10.92h-11.93v17.92h-3.6V20h15.59c6.26,0,11.5,3.02,11.5,9.85,0,4.77-2.49,8.69-7.37,9.65v.11c4.94,.63,6.36,4.03,6.63,8.54,.15,2.41,.16,8.42,1.42,10.81h-3.87Z"/></g></g></svg>