<?xml version="1.0" encoding="UTF-8"?><svg id="Layer_2" xmlns="http://www.w3.org/2000/svg" width="200" height="37.59" viewBox="0 0 200 37.59"><defs><style>.cls-1{fill:#0054a6;}.cls-2{fill:#00aeef;}.cls-3{fill:#0087cd;}</style></defs><g id="Layer_1-2"><g><path d="M121.54,.14h3.92c2.35,0,3.19,1.42,3.19,2.81,0,1.15-.66,2.38-2.2,2.74,0,0-.44,.1-.98,.1h-3.16v3.83h-.77V.14Zm3.9,4.99c1.77,0,2.43-1.13,2.43-2.17s-.65-2.14-2.4-2.14h-3.15V5.13h3.12Z"/><rect class="cls-2" x="26.71" y=".08" width="10.61" height="10.61"/><rect class="cls-3" x="26.71" y="13.44" width="10.61" height="10.61"/><rect class="cls-1" x="26.71" y="26.8" width="10.61" height="10.61"/><rect class="cls-2" x="13.35" y="13.44" width="10.61" height="10.61"/><rect class="cls-3" x="13.36" y="26.81" width="10.6" height="10.6"/><rect class="cls-2" y="26.81" width="10.6" height="10.6"/><path d="M43.52,37.42V.1h13.36c3.08,0,5.54,.43,8.29,2.58,2.47,1.89,3.94,5.16,3.94,8.73,0,5.32-4.02,10.98-11.47,10.98h-9.46v15.03h-4.66Zm4.66-19.37h9.24c4.61,0,7.02-3.42,7.02-6.81,0-2.52-.93-4.41-2.75-5.63-1.47-.98-2.81-1.18-4.49-1.18h-9.03v13.62Z"/><path d="M93.79,37.42l-7.95-16.44h-8.42v16.44h-4.66V.1h14.44c3.2,0,5.57,.76,7.45,2.4,2.31,1.96,3.64,4.8,3.64,7.77,0,4.78-2.64,8.55-7.07,10.09l-.65,.22,8.49,16.83h-5.28Zm-16.37-20.45h9.4c4.93,0,7.13-3.36,7.13-6.7,0-2.11-.78-3.83-2.19-4.86-1.23-.93-2.57-1.3-4.62-1.3h-9.73v12.86Z"/><rect x="103.79" y=".1" width="4.66" height="37.32"/><rect x="114.65" y=".08" width=".75" height="37.33"/><path d="M130.17,2.7h.66l.08,1.2c.54-.92,1.29-1.37,2.18-1.37,.33,0,.62,.04,.84,.11l-.15,.72c-.22-.07-.49-.12-.77-.12-.84,0-1.54,.49-2.1,1.45v4.92h-.74V2.7Z"/><path d="M135.43,9.61h.74V2.72h-.74v6.89Zm0-8.61h.74V.19h-.74V1Z"/><path d="M138.5,2.7h.68l.07,1.03c.62-.66,1.47-1.19,2.53-1.19,1.57,0,2.15,.93,2.15,2.31v4.76h-.76V4.84c0-1-.39-1.68-1.53-1.68-.96,0-1.76,.47-2.39,1.25v5.19h-.74V2.7Z"/><path d="M148.97,2.54c.93,0,1.65,.31,2.14,.68l-.41,.54c-.37-.27-.93-.57-1.72-.57-1.42,0-2.44,1.11-2.44,2.88,0,1.89,.96,3.07,2.44,3.07,.83,0,1.35-.29,1.84-.69l.45,.49c-.62,.53-1.3,.84-2.3,.84-1.9,0-3.18-1.41-3.18-3.71,0-2.16,1.33-3.53,3.18-3.53"/><path d="M153.08,9.61h.74V2.72h-.74v6.89Zm0-8.61h.74V.19h-.74V1Z"/><path d="M156.94,12.32h-.74V2.7h.65l.08,.99c.58-.64,1.33-1.15,2.3-1.15,1.72,0,2.84,1.33,2.84,3.52,0,2.3-1.04,3.72-2.83,3.72-.93,0-1.69-.46-2.3-1.14v3.68Zm2.16-3.16c1.43,0,2.22-1.22,2.22-3.1,0-1.78-.85-2.89-2.23-2.89-.86,0-1.55,.49-2.15,1.16v3.67c.6,.72,1.34,1.16,2.16,1.16"/><rect x="164.04" y=".08" width=".74" height="9.53"/><path d="M169.98,2.54c1.91,0,2.73,1.3,2.73,3.02,0,.15-.01,.37-.03,.5h-5.18v.03c0,1.92,.83,3.06,2.52,3.06,.78,0,1.56-.3,2.08-.66l.36,.53c-.63,.45-1.55,.77-2.47,.77-2.11,0-3.23-1.39-3.23-3.71,0-2.15,1.37-3.53,3.22-3.53m-2.43,2.96h4.44c.03-1.28-.53-2.37-1.99-2.37-1.29,0-2.26,.89-2.45,2.37"/><path d="M174.45,8.54c.49,.33,1.3,.61,2.16,.61,1.15,0,1.74-.5,1.74-1.27,0-2.03-4.16-.77-4.16-3.42,0-1.15,.96-1.92,2.38-1.92,.8,0,1.61,.22,2.23,.51l-.3,.58c-.52-.26-1.26-.47-1.93-.47-1,0-1.64,.53-1.64,1.27,0,2.03,4.16,.72,4.16,3.42,0,1.18-.89,1.92-2.49,1.92-1.01,0-1.92-.3-2.52-.66l.35-.57Z"/><path d="M184.26,3.33h-1.28v-.59h1.28v-.08c0-1.99,1.06-2.66,2.55-2.66,.3,0,.69,.07,.89,.13l-.18,.58c-.15-.04-.47-.09-.7-.09-1.12,0-1.83,.53-1.83,2.03v.09h1.99v.59h-1.99v6.28h-.74V3.33Z"/><path d="M191.06,2.54c1.87,0,3.23,1.39,3.23,3.53,0,2.27-1.31,3.71-3.23,3.71s-3.25-1.43-3.25-3.71c0-2.14,1.38-3.53,3.25-3.53m0,6.63c1.49,0,2.46-1.22,2.46-3.1,0-1.76-1.03-2.91-2.46-2.91s-2.49,1.15-2.49,2.91c0,1.88,.98,3.1,2.49,3.1"/><path d="M196.2,2.7h.66l.08,1.2c.54-.92,1.29-1.37,2.18-1.37,.33,0,.62,.04,.84,.11l-.15,.72c-.22-.07-.49-.12-.77-.12-.84,0-1.54,.49-2.1,1.45v4.92h-.74V2.7Z"/><path d="M121.57,13.64h3.92c2.35,0,3.19,1.42,3.19,2.81,0,1.15-.66,2.38-2.2,2.74l2.16,4.13h-.87l-2.03-4.03h-3.4v4.03h-.77V13.64Zm3.9,4.99c1.77,0,2.43-1.13,2.43-2.17s-.65-2.14-2.4-2.14h-3.15v4.31h3.12Z"/><path d="M134,16.09c1.95,0,2.79,1.33,2.79,3.08,0,.15-.02,.37-.03,.51h-5.29v.03c0,1.96,.84,3.12,2.57,3.12,.8,0,1.59-.3,2.13-.68l.37,.54c-.65,.46-1.59,.79-2.53,.79-2.16,0-3.3-1.42-3.3-3.79,0-2.2,1.4-3.61,3.29-3.61m-2.49,3.03h4.53c.03-1.31-.54-2.42-2.03-2.42-1.31,0-2.31,.91-2.5,2.42"/><path d="M146.76,26.08h-.76v-9.83h.66l.08,1.01c.59-.65,1.36-1.17,2.35-1.17,1.76,0,2.9,1.35,2.9,3.59,0,2.35-1.06,3.8-2.89,3.8-.95,0-1.73-.47-2.35-1.16v3.76Zm2.21-3.23c1.46,0,2.27-1.24,2.27-3.17s-.87-2.96-2.28-2.96c-.88,0-1.59,.5-2.2,1.19v3.74c.61,.73,1.37,1.19,2.21,1.19"/><path d="M139.55,22.22c.5,.33,1.33,.62,2.21,.62,1.17,0,1.78-.51,1.78-1.3,0-2.07-4.26-.79-4.26-3.49,0-1.18,.98-1.96,2.43-1.96,.81,0,1.64,.22,2.28,.53l-.3,.59c-.53-.26-1.29-.48-1.98-.48-1.02,0-1.67,.54-1.67,1.3,0,2.07,4.26,.73,4.26,3.5,0,1.2-.91,1.96-2.54,1.96-1.04,0-1.96-.31-2.57-.68l.36-.58Z"/><path d="M157.32,16.09c1.91,0,3.3,1.42,3.3,3.61,0,2.32-1.34,3.79-3.3,3.79s-3.32-1.47-3.32-3.79c0-2.18,1.41-3.61,3.32-3.61m0,6.77c1.52,0,2.52-1.24,2.52-3.16,0-1.8-1.05-2.97-2.52-2.97s-2.54,1.18-2.54,2.97c0,1.92,.99,3.16,2.54,3.16"/><path d="M163.01,16.25h.69l.07,1.05c.64-.68,1.5-1.22,2.58-1.22,1.6,0,2.2,.95,2.2,2.36v4.87h-.77v-4.88c0-1.02-.4-1.71-1.56-1.71-.98,0-1.8,.48-2.44,1.28v5.31h-.76v-7.06Z"/><path d="M171.05,22.22c.5,.33,1.33,.62,2.21,.62,1.17,0,1.78-.51,1.78-1.3,0-2.07-4.26-.79-4.26-3.49,0-1.18,.98-1.96,2.43-1.96,.82,0,1.64,.22,2.28,.53l-.3,.59c-.53-.26-1.29-.48-1.98-.48-1.02,0-1.67,.54-1.67,1.3,0,2.07,4.25,.73,4.25,3.5,0,1.2-.91,1.96-2.54,1.96-1.04,0-1.96-.31-2.57-.68l.36-.58Z"/><path d="M181.68,13.64h.76v3.59c.59-.62,1.35-1.15,2.34-1.15,1.74,0,2.9,1.36,2.9,3.6s-1.06,3.8-2.9,3.8c-.96,0-1.74-.48-2.36-1.17l-.08,1.01h-.65V13.64Zm2.97,9.2c1.47,0,2.25-1.24,2.25-3.16s-.86-2.96-2.27-2.96c-.9,0-1.59,.5-2.2,1.19v3.74c.61,.73,1.35,1.19,2.21,1.19"/><rect x="190.13" y="13.64" width=".76" height="9.67"/><path d="M196.64,16.09c1.95,0,2.79,1.33,2.79,3.08,0,.15-.01,.37-.03,.51h-5.29v.03c0,1.96,.84,3.12,2.57,3.12,.8,0,1.59-.3,2.13-.68l.37,.54c-.65,.46-1.59,.79-2.53,.79-2.16,0-3.3-1.42-3.3-3.79,0-2.2,1.4-3.61,3.29-3.61m-2.49,3.03h4.53c.03-1.31-.54-2.42-2.03-2.42-1.31,0-2.31,.91-2.5,2.42"/><rect x="121.62" y="27.34" width=".81" height="10.07"/><path d="M125.75,30.06h.72l.07,1.1c.66-.71,1.57-1.27,2.69-1.27,1.67,0,2.29,.99,2.29,2.46v5.06h-.8v-5.08c0-1.07-.42-1.78-1.63-1.78-1.02,0-1.87,.5-2.55,1.34v5.53h-.79v-7.35Z"/><polygon points="133.78 30.06 134.63 30.06 136.9 36.53 136.93 36.53 139.2 30.06 140.02 30.06 137.33 37.42 136.46 37.42 133.78 30.06"/><path d="M145.37,29.89c2.03,0,2.91,1.38,2.91,3.21,0,.16-.01,.39-.03,.53h-5.51v.03c0,2.04,.88,3.25,2.68,3.25,.84,0,1.66-.32,2.22-.71l.39,.56c-.68,.48-1.65,.82-2.63,.82-2.25,0-3.44-1.48-3.44-3.94,0-2.29,1.45-3.76,3.43-3.76m-2.59,3.15h4.72c.03-1.37-.56-2.52-2.12-2.52-1.37,0-2.4,.95-2.6,2.52"/><path d="M150.98,36.28c.52,.34,1.38,.65,2.3,.65,1.22,0,1.86-.53,1.86-1.35,0-2.16-4.43-.82-4.43-3.64,0-1.23,1.02-2.04,2.53-2.04,.85,0,1.71,.23,2.37,.55l-.32,.62c-.55-.27-1.34-.5-2.06-.5-1.07,0-1.74,.56-1.74,1.35,0,2.16,4.43,.76,4.43,3.64,0,1.25-.95,2.04-2.65,2.04-1.08,0-2.04-.32-2.68-.71l.37-.6Z"/><path d="M159.1,30.71h-1.35v-.65h1.35v-2.3h.79v2.3h2.16v.65h-2.16v4.83c0,.88,.3,1.38,1.15,1.38,.37,0,.75-.13,1.06-.34l.33,.55c-.39,.26-.92,.46-1.47,.46-1.33,0-1.87-.72-1.87-2.04v-4.83Z"/><path d="M164.76,30.06h.72l.07,1.02c.65-.66,1.54-1.19,2.58-1.19,1.09,0,1.73,.49,2.01,1.27,.69-.72,1.61-1.27,2.71-1.27,1.57,0,2.2,.99,2.2,2.44v5.08h-.81v-5.08c0-1.07-.4-1.78-1.54-1.78-.95,0-1.77,.48-2.42,1.22,.03,.2,.04,.39,.04,.6v5.04h-.81v-5.08c0-1.07-.39-1.78-1.54-1.78-.96,0-1.78,.49-2.43,1.25v5.61h-.79v-7.35Z"/><path d="M181.33,29.89c2.03,0,2.91,1.38,2.91,3.21,0,.16-.01,.39-.03,.53h-5.51v.03c0,2.04,.88,3.25,2.68,3.25,.84,0,1.66-.32,2.22-.71l.39,.56c-.68,.48-1.66,.82-2.64,.82-2.24,0-3.44-1.48-3.44-3.94,0-2.29,1.45-3.76,3.42-3.76m-2.59,3.15h4.72c.03-1.37-.56-2.52-2.12-2.52-1.37,0-2.4,.95-2.6,2.52"/><path d="M187.17,30.06h.72l.07,1.1c.66-.71,1.57-1.27,2.69-1.27,1.67,0,2.29,.99,2.29,2.46v5.06h-.81v-5.08c0-1.07-.42-1.78-1.63-1.78-1.02,0-1.87,.5-2.55,1.34v5.53h-.79v-7.35Z"/><path d="M196.66,30.71h-1.35v-.65h1.35v-2.3h.79v2.3h2.16v.65h-2.16v4.83c0,.88,.3,1.38,1.15,1.38,.37,0,.75-.13,1.07-.34l.33,.55c-.39,.26-.92,.46-1.47,.46-1.32,0-1.87-.72-1.87-2.04v-4.83Z"/><path d="M178.05,23.32h.76v-7.03h-.76v7.03Zm0-8.8h.76v-.83h-.76v.83Z"/></g></g></svg>