<?xml version="1.0" encoding="UTF-8"?><svg id="Layer_2" xmlns="http://www.w3.org/2000/svg" width="200" height="43.81" viewBox="0 0 200 43.81"><defs><style>.cls-1{fill:#050505;}.cls-2{fill:#ea0029;}</style></defs><g id="Layer_1-2"><g><path class="cls-2" d="M100.77,21.13c0-6.91-3.81-11.44-9.82-11.44s-9.82,4.52-9.82,11.44,3.81,11.44,9.82,11.44,9.82-4.52,9.82-11.44m11.31,0c0,12.54-9.31,21.14-21.14,21.14s-21.13-8.6-21.13-21.14S79.12,0,90.95,0s21.14,8.6,21.14,21.13m-42.21,11.31v9.05H37.81V.78h31.47V9.82h-20.68v6.66h15.96v8.92h-15.96v7.05h21.26ZM0,27.08l10.08-.32c.39,5.11,4.33,6.85,8.86,6.85,3.81,0,6.27-1.36,6.27-3.62,0-2.39-2.39-2.78-5.49-3.36l-7.43-1.29C5.62,24.11,.97,20.36,.97,13.25,.97,4.98,7.43,0,17.58,0c11.24,0,17.32,5.49,17.51,14.54l-10.08,.19c-.32-4.2-3.36-6.14-7.56-6.14-3.62,0-5.69,1.42-5.69,3.68,0,1.87,1.55,2.59,4.07,3.04l7.69,1.36c8.53,1.49,12.41,5.94,12.41,12.6,0,8.66-7.5,12.99-17,12.99C7.89,42.27,0,36.9,0,27.08"/><path class="cls-1" d="M153.91,29.88h-1.03l1.26-2.98-3.17-7.43h1.1l2.57,6.15h.07l2.48-6.15h1.03l-4.31,10.41Zm-3.31-10.27l-.12,.91c-.43-.22-.69-.29-1.14-.29-1.08,0-1.96,1.12-1.96,2.62v4.1h-1.05v-7.48h1.05v1.57c.29-.86,1.05-1.77,2.15-1.77,.47,0,.79,.1,1.07,.34m-11.91,3.12h5.02c-.04-1.38-.81-2.64-2.4-2.64-1.48,0-2.45,1.24-2.62,2.64m5.22,1.55l.9,.12c-.36,1.71-1.6,2.76-3.43,2.76-2.17,0-3.79-1.53-3.79-3.85s1.6-4.05,3.72-4.05c2.34,0,3.52,1.69,3.52,3.72v.48h-6.15c.07,1.66,1.22,2.83,2.71,2.83,1.38,0,2.22-.69,2.53-2.02m-10.01,2.67h-.84l-3.17-7.48h1.1l2.52,6.07h.07l2.46-6.07h1.03l-3.17,7.48Zm-4.2-.91v.91h-7.51v-10.86h7.36v.92h-6.31v3.86h5.05v.91h-5.05v4.26h6.46Zm36.47-17.87c0-1.15-.72-1.83-1.96-1.83s-1.93,.67-1.93,1.83,.72,1.81,1.93,1.81,1.96-.67,1.96-1.81m-4.65,5.95c0,1.1,1.05,1.57,2.55,1.57,1.86,0,3.19-.45,3.19-1.74,0-.79-.67-1.09-1.67-1.09h-2.36c-.91,0-1.71,.29-1.71,1.26m5.72-5.96c0,1.57-1.28,2.53-3.03,2.53-.62,0-1.17-.1-1.64-.33-.31,.16-.62,.47-.62,.86,0,.47,.26,.71,.98,.71h2.89c1.6,0,2.45,.83,2.45,1.98,0,1.84-2.02,2.53-4.2,2.53-1.98,0-3.62-.69-3.62-2.07,0-.91,.64-1.48,1.59-1.69-.69-.21-.97-.67-.97-1.22,0-.64,.45-1.07,1.05-1.38-.59-.43-.93-1.1-.93-1.93,0-1.57,1.26-2.53,3.02-2.53,.96,0,1.79,.29,2.33,.83,.4-.6,1.05-1.02,1.85-1.02v1.02c-.57,0-1.17,.15-1.53,.36,.26,.38,.4,.83,.4,1.34m-13.1,.67v4.48h-1.05V5.83h1.05v1.38c.36-.91,1.4-1.59,2.52-1.59,1.93,0,2.74,1.26,2.74,3.05v4.64h-1.05v-4.67c0-1.33-.69-2.19-1.96-2.19-1.19,0-2.24,.93-2.24,2.38m-4.13-6.38h1.12v1.4h-1.12v-1.4Zm.03,3.38h1.05v7.48h-1.05V5.83Zm-2.96,.85h-4.57v-.85h5.94v.73l-4.81,5.91h4.93v.84h-6.22v-.72l4.72-5.91Zm-7.3-4.22h1.12v1.4h-1.12v-1.4Zm.03,3.38h1.05v7.48h-1.05V5.83Zm-7.63,3.26h5.01c-.03-1.38-.81-2.64-2.4-2.64-1.48,0-2.45,1.24-2.62,2.64m5.22,1.55l.9,.12c-.36,1.71-1.6,2.76-3.43,2.76-2.17,0-3.79-1.53-3.79-3.84s1.6-4.05,3.72-4.05c2.34,0,3.52,1.69,3.52,3.72v.48h-6.15c.07,1.65,1.22,2.83,2.71,2.83,1.38,0,2.22-.69,2.53-2.02m-15.96-1.22l.98-.09c.08,2.15,1.53,3.34,3.52,3.34,1.79,0,2.91-.79,2.91-2.14,0-1.1-.66-1.69-2.22-2l-2.21-.43c-1.55-.31-2.62-1.14-2.62-2.77,0-1.79,1.43-3.09,3.72-3.09,2.64,0,4.2,1.45,4.2,3.9l-1,.09c-.04-1.98-1.21-3.14-3.19-3.14-1.72,0-2.69,.84-2.69,2.2,0,1.22,.77,1.62,2.2,1.9l1.93,.38c1.91,.38,2.9,1.15,2.9,2.88,0,1.91-1.66,3.07-3.95,3.07-2.59,0-4.5-1.46-4.5-4.1"/><path class="cls-1" d="M195.69,43.81h-1.03l1.26-2.98-3.17-7.43h1.1l2.57,6.15h.07l2.48-6.15h1.03l-4.31,10.41Zm-6.77-4.59v-5.05h-1.16v-.52l.45-.09c.69-.14,.83-.47,.98-1.19l.22-1.07h.53v2.09h2.17v.78h-2.17v5.07c0,.67,.27,1,.96,1,.52,0,1.03-.26,1.46-.52v.74c-.53,.41-1.07,.62-1.83,.62-1,0-1.64-.5-1.64-1.86m-3.34-9.2h1.12v1.4h-1.12v-1.4Zm.04,3.38h1.05v7.48h-1.05v-7.48Zm-7.17,3v4.48h-1.05v-7.48h1.05v1.38c.36-.91,1.4-1.59,2.52-1.59,1.93,0,2.74,1.26,2.74,3.05v4.64h-1.05v-4.67c0-1.33-.69-2.19-1.97-2.19-1.19,0-2.24,.93-2.24,2.38m-4.1,1.48v-4.48h1.05v7.48h-1.05v-1.38c-.36,.91-1.36,1.59-2.48,1.59-1.93,0-2.69-1.26-2.69-3.05v-4.64h1.05v4.67c0,1.33,.64,2.19,1.91,2.19,1.19,0,2.21-.93,2.21-2.38m-9.77,1.34v-5.05h-1.15v-.52l.45-.09c.69-.14,.83-.47,.98-1.19l.22-1.07h.53v2.09h2.17v.78h-2.17v5.07c0,.67,.28,1,.97,1,.52,0,1.03-.26,1.46-.52v.74c-.53,.41-1.07,.62-1.83,.62-1,0-1.64-.5-1.64-1.86m-1.48-5.69l-.12,.91c-.43-.22-.69-.29-1.14-.29-1.08,0-1.96,1.12-1.96,2.62v4.1h-1.05v-7.48h1.05v1.57c.29-.86,1.05-1.78,2.15-1.78,.47,0,.79,.1,1.07,.34m-5.77,3.6c0,2.33-1.62,3.95-3.76,3.95s-3.74-1.62-3.74-3.95,1.62-3.95,3.74-3.95,3.76,1.62,3.76,3.95m-6.39,0c0,1.83,.97,3.12,2.64,3.12s2.66-1.29,2.66-3.12-.97-3.12-2.66-3.12-2.64,1.29-2.64,3.12m-8.37,2.1v4.57h-1.05v-10.41h1.05v1.66c.33-.95,1.31-1.86,2.76-1.86,2.22,0,3.46,1.74,3.46,3.95s-1.24,3.95-3.46,3.95c-1.45,0-2.43-.9-2.76-1.84m-.03-2.36v.52c0,1.79,1.17,2.83,2.65,2.83,1.59,0,2.5-1.19,2.5-3.08s-.92-3.08-2.5-3.08c-1.48,0-2.65,1.03-2.65,2.83m-8.73,2.36v4.57h-1.05v-10.41h1.05v1.66c.33-.95,1.31-1.86,2.76-1.86,2.22,0,3.46,1.74,3.46,3.95s-1.24,3.95-3.46,3.95c-1.45,0-2.43-.9-2.76-1.84m-.03-2.36v.52c0,1.79,1.17,2.83,2.65,2.83,1.59,0,2.5-1.19,2.5-3.08s-.91-3.08-2.5-3.08c-1.48,0-2.65,1.03-2.65,2.83m-3.72-1.43c0-2.88-1.64-4.72-4.19-4.72s-4.19,1.84-4.19,4.72,1.64,4.72,4.19,4.72,4.19-1.84,4.19-4.72m1.14,0c0,3.34-2.15,5.64-5.33,5.64s-5.33-2.29-5.33-5.64,2.15-5.64,5.33-5.64,5.33,2.29,5.33,5.64"/></g></g></svg>