<?xml version="1.0" encoding="UTF-8"?><svg id="Layer_2" xmlns="http://www.w3.org/2000/svg" width="200" height="75.34" viewBox="0 0 200 75.34"><defs><style>.cls-1{fill:#c63d3b;}.cls-2{fill:#129bda;}</style></defs><g id="Layer_1-2"><g><polygon class="cls-2" points="70.1 6.9 78.38 6.9 78.38 9.33 75.58 9.33 75.58 23.95 72.9 23.95 72.9 9.33 70.1 9.33 70.1 6.9"/><path class="cls-2" d="M86.06,3.29l-2.49,2.7h-1.8l1.65-2.7h2.63Zm-3.83,10.79h3.68v2.44h-3.68v4.99h4.63v2.44h-7.31V6.89h7.31v2.44h-4.63v4.75Z"/><polygon class="cls-2" points="88.52 6.9 91.2 6.9 91.2 21.51 95.61 21.51 95.61 23.95 88.52 23.95 88.52 6.9"/><path class="cls-2" d="M103.28,3.29l-2.49,2.7h-1.8l1.65-2.7h2.63Zm-3.83,10.79h3.68v2.44h-3.68v4.99h4.63v2.44h-7.31V6.89h7.31v2.44h-4.63v4.75Z"/><path class="cls-2" d="M113.51,17.59v2.27c0,2.73-1.36,4.29-4,4.29s-3.99-1.56-3.99-4.29V10.99c0-2.73,1.36-4.29,3.99-4.29s4,1.56,4,4.29v1.66h-2.53v-1.83c0-1.22-.54-1.68-1.39-1.68s-1.39,.46-1.39,1.68v9.21c0,1.22,.54,1.66,1.39,1.66s1.39-.44,1.39-1.66v-2.44h2.53Z"/><path class="cls-2" d="M117.6,20.03c0,1.22,.54,1.68,1.39,1.68s1.39-.46,1.39-1.68V10.82c0-1.22-.54-1.68-1.39-1.68s-1.39,.46-1.39,1.68v9.21Zm-2.68-9.04c0-2.73,1.44-4.29,4.07-4.29s4.07,1.56,4.07,4.29v8.87c0,2.73-1.44,4.29-4.07,4.29s-4.07-1.56-4.07-4.29V10.99Z"/><polygon class="cls-2" points="130.44 19 130.49 19 132.29 6.89 136.02 6.89 136.02 23.95 133.48 23.95 133.48 11.72 133.43 11.72 131.63 23.95 129.1 23.95 127.15 11.89 127.1 11.89 127.1 23.95 124.76 23.95 124.76 6.89 128.49 6.89 130.44 19"/><path class="cls-2" d="M141.57,6.7c2.61,0,3.95,1.56,3.95,4.29v.54h-2.53v-.71c0-1.22-.49-1.68-1.34-1.68s-1.34,.46-1.34,1.68,.53,2.17,2.29,3.7c2.24,1.97,2.95,3.39,2.95,5.34,0,2.73-1.36,4.29-4,4.29s-3.99-1.56-3.99-4.29v-1.05h2.53v1.22c0,1.22,.54,1.66,1.39,1.66s1.39-.44,1.39-1.66-.54-2.17-2.29-3.7c-2.24-1.97-2.95-3.38-2.95-5.34,0-2.73,1.34-4.29,3.95-4.29"/><path class="cls-2" d="M74.49,28.58c2.61,0,3.95,1.56,3.95,4.29v.54h-2.53v-.71c0-1.22-.49-1.68-1.34-1.68s-1.34,.46-1.34,1.68,.53,2.17,2.29,3.7c2.24,1.97,2.95,3.39,2.95,5.34,0,2.73-1.36,4.29-4,4.29s-3.99-1.56-3.99-4.29v-1.05h2.53v1.22c0,1.22,.54,1.66,1.39,1.66s1.39-.44,1.39-1.66-.54-2.17-2.29-3.7c-2.24-1.97-2.95-3.38-2.95-5.34,0-2.73,1.34-4.29,3.95-4.29"/><path class="cls-2" d="M82.55,40.42h2.58l-1.27-8.62h-.05l-1.27,8.62Zm6.11,5.41h-2.7l-.46-3.09h-3.29l-.46,3.09h-2.46l2.73-17.05h3.92l2.73,17.05Z"/><polygon class="cls-2" points="92.34 33.48 92.29 33.48 92.29 45.83 89.88 45.83 89.88 28.78 93.24 28.78 95.95 38.98 96 38.98 96 28.78 98.38 28.78 98.38 45.83 95.63 45.83 92.34 33.48"/><path class="cls-2" d="M103.91,28.58c2.61,0,3.95,1.56,3.95,4.29v.54h-2.53v-.71c0-1.22-.49-1.68-1.34-1.68s-1.34,.46-1.34,1.68,.53,2.17,2.29,3.7c2.24,1.97,2.95,3.39,2.95,5.34,0,2.73-1.36,4.29-4,4.29s-3.99-1.56-3.99-4.29v-1.05h2.53v1.22c0,1.22,.54,1.66,1.39,1.66s1.39-.44,1.39-1.66-.54-2.17-2.29-3.7c-2.24-1.97-2.95-3.38-2.95-5.34,0-2.73,1.34-4.29,3.95-4.29"/><polygon class="cls-2" points="115.87 36.35 119.33 36.35 119.33 38.79 115.87 38.79 115.87 45.83 113.19 45.83 113.19 28.77 120.28 28.77 120.28 31.21 115.87 31.21 115.87 36.35"/><path class="cls-2" d="M124.25,31.21v5.24h1.05c1,0,1.61-.44,1.61-1.8v-1.68c0-1.22-.41-1.75-1.36-1.75h-1.29Zm2.92,14.62c-.15-.44-.24-.71-.24-2.09v-2.68c0-1.58-.53-2.17-1.75-2.17h-.93v6.94h-2.68V28.78h4.04c2.78,0,3.97,1.29,3.97,3.92v1.34c0,1.75-.56,2.88-1.75,3.43v.05c1.34,.56,1.78,1.83,1.78,3.61v2.63c0,.83,.03,1.44,.29,2.07h-2.73Z"/><path class="cls-2" d="M133.82,41.91c0,1.22,.54,1.68,1.39,1.68s1.39-.46,1.39-1.68v-9.21c0-1.22-.54-1.68-1.39-1.68s-1.39,.46-1.39,1.68v9.21Zm-2.68-9.04c0-2.73,1.44-4.29,4.07-4.29s4.07,1.56,4.07,4.29v8.87c0,2.73-1.44,4.29-4.07,4.29s-4.07-1.56-4.07-4.29v-8.87Z"/><polygon class="cls-2" points="143.44 33.48 143.39 33.48 143.39 45.83 140.98 45.83 140.98 28.78 144.34 28.78 147.05 38.98 147.1 38.98 147.1 28.78 149.48 28.78 149.48 45.83 146.73 45.83 143.44 33.48"/><polygon class="cls-2" points="150.63 28.78 158.91 28.78 158.91 31.21 156.11 31.21 156.11 45.83 153.43 45.83 153.43 31.21 150.63 31.21 150.63 28.78"/><rect class="cls-2" x="160.08" y="28.78" width="2.68" height="17.05"/><path class="cls-2" d="M168.14,25.17l1.66,2.7h-1.92l-2.49-2.7h2.75Zm-.76,10.79h3.68v2.44h-3.68v4.99h4.63v2.44h-7.31V28.78h7.31v2.44h-4.63v4.75Z"/><path class="cls-2" d="M176.35,31.21v5.24h1.05c1,0,1.61-.44,1.61-1.8v-1.68c0-1.22-.41-1.75-1.37-1.75h-1.29Zm2.92,14.62c-.15-.44-.24-.71-.24-2.09v-2.68c0-1.58-.53-2.17-1.75-2.17h-.93v6.94h-2.68V28.78h4.04c2.78,0,3.97,1.29,3.97,3.92v1.34c0,1.75-.56,2.88-1.75,3.43v.05c1.34,.56,1.78,1.83,1.78,3.61v2.63c0,.83,.03,1.44,.29,2.07h-2.73Z"/><polygon class="cls-2" points="186.14 35.96 189.82 35.96 189.82 38.4 186.14 38.4 186.14 43.39 190.77 43.39 190.77 45.83 183.46 45.83 183.46 28.78 190.77 28.78 190.77 31.21 186.14 31.21 186.14 35.96"/><path class="cls-2" d="M196.03,28.58c2.61,0,3.95,1.56,3.95,4.29v.54h-2.53v-.71c0-1.22-.49-1.68-1.34-1.68s-1.34,.46-1.34,1.68,.53,2.17,2.29,3.7c2.24,1.97,2.95,3.39,2.95,5.34,0,2.73-1.36,4.29-4,4.29s-3.99-1.56-3.99-4.29v-1.05h2.53v1.22c0,1.22,.54,1.66,1.39,1.66s1.39-.44,1.39-1.66-.54-2.17-2.29-3.7c-2.24-1.97-2.95-3.38-2.95-5.34,0-2.73,1.34-4.29,3.95-4.29"/><path class="cls-2" d="M70.34,58.78c0-.5,.09-1.01,.27-1.51,.18-.5,.44-.95,.78-1.34,.34-.4,.76-.71,1.25-.96,.5-.25,1.06-.37,1.69-.37,.75,0,1.39,.17,1.92,.51,.53,.34,.93,.78,1.18,1.33l-.65,.4c-.13-.28-.3-.51-.49-.7-.19-.19-.4-.34-.62-.46-.22-.12-.45-.2-.68-.25-.24-.05-.47-.08-.7-.08-.5,0-.95,.1-1.34,.31-.39,.21-.71,.47-.98,.8-.26,.33-.46,.7-.6,1.12-.13,.41-.2,.83-.2,1.26,0,.47,.08,.91,.24,1.34,.16,.42,.38,.8,.66,1.13,.28,.33,.61,.59,.99,.78,.38,.19,.8,.29,1.25,.29,.24,0,.48-.03,.73-.09,.25-.06,.49-.15,.72-.28,.23-.13,.45-.29,.64-.49,.2-.19,.36-.43,.5-.7l.69,.36c-.13,.31-.32,.59-.57,.83-.24,.24-.52,.44-.82,.61-.3,.17-.62,.29-.95,.38-.34,.09-.67,.13-.99,.13-.58,0-1.11-.13-1.59-.38-.48-.25-.89-.58-1.24-.99-.35-.4-.62-.87-.81-1.38-.19-.52-.29-1.04-.29-1.58"/><path class="cls-2" d="M79.23,59.99c0,.35,.06,.67,.18,.96,.12,.3,.28,.56,.48,.78,.2,.22,.44,.4,.71,.53,.27,.13,.56,.19,.87,.19s.6-.06,.87-.19c.27-.13,.51-.31,.71-.53,.2-.22,.37-.49,.49-.79,.12-.3,.18-.62,.18-.97s-.06-.66-.18-.96c-.12-.3-.28-.57-.49-.79-.21-.22-.44-.4-.71-.53-.27-.13-.56-.19-.87-.19s-.59,.07-.86,.19c-.27,.13-.51,.31-.71,.54-.21,.23-.37,.49-.49,.8-.12,.3-.18,.63-.18,.98m2.23,3.17c-.45,0-.86-.09-1.23-.25-.37-.17-.69-.4-.96-.69-.27-.29-.48-.63-.63-1.02-.15-.39-.22-.79-.22-1.22s.08-.84,.23-1.23c.15-.39,.37-.72,.64-1.02,.27-.29,.59-.53,.96-.7,.37-.17,.78-.26,1.22-.26s.85,.09,1.22,.26c.37,.17,.7,.4,.97,.7,.27,.29,.49,.63,.64,1.02,.15,.39,.23,.8,.23,1.23s-.08,.83-.22,1.22c-.15,.39-.36,.72-.63,1.02-.27,.29-.6,.52-.97,.69-.37,.17-.79,.25-1.24,.25"/><path class="cls-2" d="M95.04,63.04h-.8v-3.44c0-.72-.11-1.25-.34-1.58-.23-.34-.57-.51-1.02-.51-.24,0-.46,.04-.67,.13-.21,.09-.4,.21-.58,.37-.18,.16-.33,.34-.47,.56-.13,.22-.23,.45-.31,.71v3.76h-.8v-3.44c0-.73-.11-1.26-.33-1.6-.22-.33-.56-.5-1.02-.5s-.88,.16-1.24,.49c-.36,.32-.62,.75-.78,1.28v3.77h-.8v-6.16h.73v1.4c.25-.47,.58-.84,.99-1.11,.41-.27,.86-.4,1.36-.4,.52,0,.94,.15,1.25,.44,.31,.29,.5,.67,.58,1.15,.58-1.06,1.37-1.59,2.38-1.59,.35,0,.64,.06,.88,.19,.24,.13,.43,.31,.58,.54,.14,.23,.25,.51,.32,.84,.07,.33,.1,.69,.1,1.09v3.61Z"/><path class="cls-2" d="M105.91,63.04h-.8v-3.44c0-.72-.11-1.25-.34-1.58-.23-.34-.57-.51-1.02-.51-.24,0-.46,.04-.67,.13-.21,.09-.4,.21-.58,.37-.18,.16-.33,.34-.47,.56-.13,.22-.23,.45-.31,.71v3.76h-.8v-3.44c0-.73-.11-1.26-.33-1.6-.22-.33-.56-.5-1.02-.5s-.88,.16-1.24,.49c-.36,.32-.62,.75-.78,1.28v3.77h-.8v-6.16h.73v1.4c.25-.47,.58-.84,.99-1.11,.41-.27,.86-.4,1.36-.4,.52,0,.94,.15,1.25,.44,.31,.29,.5,.67,.58,1.15,.58-1.06,1.37-1.59,2.38-1.59,.35,0,.64,.06,.88,.19,.24,.13,.43,.31,.58,.54,.14,.23,.25,.51,.32,.84,.07,.33,.1,.69,.1,1.09v3.61Z"/><path class="cls-2" d="M109.54,63.16c-.67,0-1.17-.22-1.5-.67s-.49-1.11-.49-1.99v-3.62h.8v3.48c0,1.39,.48,2.09,1.43,2.09,.24,0,.47-.04,.7-.12,.23-.08,.44-.19,.63-.34,.19-.15,.37-.33,.52-.53,.15-.21,.28-.44,.37-.7v-3.88h.8v5.12c0,.22,.09,.33,.28,.33v.71c-.09,.02-.17,.02-.23,.02h-.12c-.19,0-.34-.08-.46-.2-.12-.13-.18-.3-.18-.51v-.71c-.27,.48-.63,.85-1.09,1.12-.46,.26-.95,.4-1.47,.4Z"/><path class="cls-2" d="M119.82,63.04h-.8v-3.44c0-.73-.11-1.26-.32-1.6-.22-.33-.55-.5-1-.5-.24,0-.47,.04-.71,.13-.24,.09-.45,.21-.66,.37-.2,.16-.38,.34-.54,.56-.16,.22-.27,.45-.34,.7v3.77h-.8v-6.16h.73v1.4c.25-.45,.61-.81,1.08-1.09,.47-.28,.98-.41,1.53-.41,.34,0,.62,.06,.86,.19,.24,.13,.43,.3,.57,.53,.14,.23,.24,.51,.31,.84,.06,.33,.09,.7,.09,1.1v3.61Z"/><path class="cls-2" d="M121.53,63.04h.8v-6.16h-.8v6.16Zm0-7.45h.8v-1.18h-.8v1.18Z"/><path class="cls-2" d="M123.69,59.94c0-.43,.08-.84,.22-1.23,.15-.39,.36-.72,.63-1.01,.27-.29,.6-.51,.98-.68,.38-.17,.8-.25,1.25-.25,.58,0,1.09,.13,1.53,.4,.43,.27,.76,.62,.98,1.07l-.78,.25c-.17-.31-.41-.56-.73-.74-.31-.18-.66-.27-1.03-.27-.31,0-.61,.06-.88,.19-.27,.13-.51,.3-.71,.51-.2,.22-.36,.48-.47,.77-.11,.3-.17,.63-.17,.98s.06,.67,.18,.98,.28,.57,.48,.8c.21,.22,.44,.4,.72,.53,.27,.13,.56,.19,.87,.19,.2,0,.39-.03,.58-.08,.19-.05,.37-.13,.54-.23,.17-.1,.31-.21,.43-.34,.12-.13,.2-.26,.25-.4l.79,.23c-.09,.22-.21,.42-.38,.61-.17,.18-.36,.35-.58,.49-.22,.14-.47,.24-.75,.32-.27,.08-.55,.11-.85,.11-.45,0-.86-.09-1.24-.26-.38-.17-.71-.4-.98-.7-.28-.3-.49-.64-.65-1.02-.15-.39-.23-.8-.23-1.24"/><path class="cls-2" d="M132.34,62.54c.42,0,.8-.08,1.15-.24,.35-.16,.62-.37,.8-.62,.07-.07,.13-.15,.16-.23s.05-.16,.05-.23v-1.01c-.27-.1-.54-.18-.83-.24-.29-.05-.58-.08-.88-.08-.57,0-1.03,.12-1.38,.36-.36,.24-.53,.55-.53,.93,0,.19,.04,.37,.11,.53,.08,.17,.18,.31,.31,.43,.13,.12,.29,.22,.47,.29,.18,.07,.37,.11,.58,.11Zm-.19,.62c-.29,0-.56-.05-.81-.15-.25-.1-.47-.24-.65-.41s-.33-.38-.43-.61c-.1-.23-.15-.48-.15-.75s.06-.52,.19-.75c.13-.23,.3-.43,.53-.59,.23-.17,.5-.29,.82-.38,.32-.09,.66-.14,1.04-.14,.31,0,.63,.03,.96,.08,.32,.06,.61,.13,.86,.24v-.56c0-.54-.15-.98-.46-1.29-.31-.32-.73-.48-1.28-.48-.31,0-.64,.06-.97,.19-.33,.13-.67,.31-1,.54l-.28-.53c.8-.54,1.57-.8,2.32-.8s1.38,.22,1.82,.65c.44,.43,.66,1.03,.66,1.8v2.78c0,.22,.1,.33,.3,.33v.71c-.13,.02-.24,.04-.31,.04-.21,0-.36-.05-.48-.15-.12-.1-.18-.24-.18-.43l-.02-.49c-.28,.37-.64,.66-1.07,.85-.43,.2-.89,.3-1.39,.3"/><path class="cls-2" d="M139.96,62.74s-.12,.05-.21,.09c-.09,.04-.2,.08-.31,.12-.12,.04-.25,.08-.4,.11-.15,.03-.31,.05-.47,.05s-.34-.02-.49-.07c-.16-.05-.3-.12-.41-.22-.12-.1-.21-.22-.28-.37-.07-.15-.11-.32-.11-.52v-4.41h-.85v-.64h.85v-2.08h.8v2.08h1.42v.64h-1.42v4.19c.01,.23,.09,.4,.24,.5,.15,.11,.31,.16,.5,.16,.23,0,.43-.04,.6-.11,.17-.08,.28-.13,.33-.16l.21,.65Z"/><path class="cls-2" d="M140.96,63.04h.8v-6.16h-.8v6.16Zm0-7.45h.8v-1.18h-.8v1.18Z"/><path class="cls-2" d="M143.93,59.99c0,.35,.06,.67,.18,.96,.12,.3,.28,.56,.48,.78,.2,.22,.44,.4,.71,.53,.27,.13,.56,.19,.87,.19s.6-.06,.87-.19,.51-.31,.71-.53,.37-.49,.49-.79c.12-.3,.18-.62,.18-.97s-.06-.66-.18-.96c-.12-.3-.28-.57-.49-.79s-.44-.4-.71-.53c-.27-.13-.56-.19-.87-.19s-.59,.07-.86,.19c-.27,.13-.51,.31-.71,.54-.21,.23-.37,.49-.49,.8-.12,.3-.18,.63-.18,.98m2.23,3.17c-.45,0-.86-.09-1.23-.25-.37-.17-.69-.4-.96-.69-.27-.29-.48-.63-.63-1.02-.15-.39-.22-.79-.22-1.22s.08-.84,.23-1.23c.15-.39,.37-.72,.64-1.02,.27-.29,.59-.53,.96-.7,.37-.17,.78-.26,1.22-.26s.85,.09,1.22,.26c.37,.17,.7,.4,.97,.7,.27,.29,.49,.63,.64,1.02,.15,.39,.23,.8,.23,1.23s-.08,.83-.22,1.22c-.15,.39-.36,.72-.63,1.02-.27,.29-.6,.52-.97,.69-.37,.17-.79,.25-1.24,.25"/><path class="cls-2" d="M155.76,63.04h-.8v-3.44c0-.73-.11-1.26-.32-1.6-.22-.33-.55-.5-1-.5-.24,0-.47,.04-.71,.13-.24,.09-.45,.21-.66,.37-.2,.16-.38,.34-.54,.56-.16,.22-.27,.45-.34,.7v3.77h-.8v-6.16h.73v1.4c.25-.45,.61-.81,1.08-1.09,.47-.28,.98-.41,1.53-.41,.34,0,.62,.06,.86,.19,.24,.13,.43,.3,.57,.53,.14,.23,.24,.51,.31,.84,.06,.33,.09,.7,.09,1.1v3.61Z"/><path class="cls-2" d="M159.52,63.16c-.48,0-.95-.08-1.41-.24-.46-.16-.85-.39-1.18-.69l.37-.54c.35,.28,.7,.5,1.06,.64,.36,.14,.74,.21,1.15,.21,.5,0,.89-.1,1.19-.3,.3-.2,.44-.49,.44-.86,0-.17-.04-.32-.12-.43-.08-.11-.19-.22-.35-.3-.15-.09-.35-.16-.58-.23-.23-.07-.5-.13-.81-.21-.36-.09-.66-.17-.92-.26-.26-.09-.47-.18-.64-.3-.17-.11-.3-.25-.38-.41-.08-.16-.12-.36-.12-.61,0-.31,.06-.58,.18-.82s.29-.43,.5-.59c.21-.15,.45-.27,.73-.35,.28-.08,.58-.12,.89-.12,.47,0,.9,.08,1.29,.23,.39,.15,.7,.36,.93,.61l-.39,.47c-.23-.24-.51-.41-.83-.53-.33-.12-.67-.18-1.02-.18-.21,0-.41,.02-.59,.06-.18,.05-.34,.11-.48,.21-.14,.09-.25,.22-.33,.36-.08,.15-.12,.32-.12,.52,0,.17,.03,.3,.08,.4,.06,.1,.15,.19,.27,.27,.13,.07,.29,.14,.48,.2,.19,.06,.43,.12,.7,.18,.4,.09,.74,.19,1.04,.28,.3,.09,.55,.21,.75,.33,.2,.13,.35,.28,.45,.46,.1,.18,.15,.4,.15,.66,0,.57-.22,1.02-.65,1.35-.43,.33-1.02,.5-1.75,.5"/><path class="cls-2" d="M166.54,63.04v-5.52h-.85v-.64h.85v-.17c0-.76,.16-1.35,.49-1.78,.32-.43,.76-.64,1.32-.64,.25,0,.48,.04,.71,.11,.23,.07,.43,.17,.59,.28l-.25,.58c-.11-.09-.25-.15-.41-.2-.16-.05-.33-.07-.49-.07-.38,0-.67,.14-.86,.44-.2,.29-.3,.71-.3,1.26v.19h1.7v.64h-1.7v5.52h-.8Z"/><path class="cls-2" d="M170.23,59.99c0,.35,.06,.67,.18,.96,.12,.3,.28,.56,.48,.78,.2,.22,.44,.4,.71,.53,.27,.13,.56,.19,.87,.19s.6-.06,.87-.19c.27-.13,.51-.31,.71-.53,.2-.22,.37-.49,.49-.79,.12-.3,.18-.62,.18-.97s-.06-.66-.18-.96c-.12-.3-.28-.57-.49-.79-.21-.22-.44-.4-.71-.53-.27-.13-.56-.19-.87-.19s-.59,.07-.86,.19c-.27,.13-.51,.31-.71,.54-.21,.23-.37,.49-.49,.8-.12,.3-.18,.63-.18,.98m2.23,3.17c-.45,0-.86-.09-1.23-.25-.37-.17-.69-.4-.96-.69-.27-.29-.48-.63-.63-1.02-.15-.39-.22-.79-.22-1.22s.08-.84,.23-1.23c.15-.39,.37-.72,.64-1.02,.27-.29,.59-.53,.96-.7,.37-.17,.78-.26,1.22-.26s.85,.09,1.22,.26c.37,.17,.7,.4,.97,.7,.27,.29,.49,.63,.64,1.02,.15,.39,.23,.8,.23,1.23s-.08,.83-.22,1.22c-.15,.39-.36,.72-.63,1.02-.27,.29-.6,.52-.97,.69-.37,.17-.79,.25-1.24,.25"/><path class="cls-2" d="M179.95,57.59c-.54,.02-1.02,.17-1.42,.45-.4,.28-.69,.67-.85,1.17v3.83h-.8v-6.16h.76v1.48c.23-.47,.53-.85,.92-1.11,.39-.27,.8-.4,1.24-.4,.06,0,.11,0,.15,.01v.73Z"/><path class="cls-2" d="M183.8,54.41h.8v7.24c0,.23,.06,.41,.19,.54,.13,.13,.3,.19,.53,.19,.09,0,.19-.01,.31-.04,.12-.02,.23-.05,.33-.09l.14,.65c-.15,.06-.33,.11-.55,.15-.22,.04-.4,.06-.56,.06-.37,0-.66-.1-.88-.31s-.32-.5-.32-.88v-7.51Z"/><path class="cls-2" d="M186.98,63.04h.8v-6.16h-.8v6.16Zm0-7.45h.8v-1.18h-.8v1.18Z"/><path class="cls-2" d="M189.85,63.04v-5.52h-.85v-.64h.85v-.17c0-.76,.16-1.35,.49-1.78,.32-.43,.76-.64,1.32-.64,.25,0,.48,.04,.71,.11,.23,.07,.43,.17,.59,.28l-.25,.58c-.11-.09-.25-.15-.41-.2-.16-.05-.33-.07-.49-.07-.38,0-.67,.14-.86,.44-.2,.29-.3,.71-.3,1.26v.19h1.7v.64h-1.7v5.52h-.8Z"/><path class="cls-2" d="M198.08,59.63c-.02-.33-.1-.63-.23-.9-.13-.27-.3-.51-.5-.7-.2-.2-.43-.35-.7-.46s-.55-.17-.85-.17-.58,.05-.85,.17-.5,.27-.7,.46c-.2,.2-.36,.43-.49,.71-.12,.28-.19,.58-.22,.9h4.53Zm-2.27,3.52c-.45,0-.86-.09-1.24-.25-.37-.17-.7-.4-.98-.7-.28-.3-.49-.64-.65-1.02-.15-.39-.23-.8-.23-1.24s.08-.84,.23-1.22c.15-.38,.37-.72,.64-1,.27-.29,.6-.52,.98-.69,.38-.17,.79-.26,1.23-.26s.86,.09,1.24,.26c.37,.17,.7,.4,.96,.69,.27,.29,.48,.63,.63,1.01,.15,.38,.22,.78,.22,1.2v.19c0,.06,0,.11-.01,.13h-5.27c.02,.33,.1,.64,.23,.92,.13,.28,.3,.52,.5,.73,.21,.2,.44,.36,.71,.48,.26,.11,.54,.17,.85,.17,.2,0,.39-.03,.59-.08,.2-.05,.38-.13,.54-.22,.16-.09,.31-.21,.45-.35,.13-.14,.24-.29,.31-.45l.7,.19c-.09,.23-.23,.44-.4,.62-.17,.18-.37,.35-.6,.49-.23,.14-.48,.24-.76,.32-.28,.07-.57,.11-.86,.11"/><path class="cls-2" d="M42.92,26.56c-1.48,.62-2.25,1.65-2.25,3.04v.33l.31,.25c.17,.13,.53,.37,.8,.52,.43,.24,.5,.29,.5,.41,0,.2-.17,.53-.51,.95-.45,.56-.57,.78-.59,1.16-.05,.64,.3,1.28,1.13,2.06,.56,.52,.59,.65,.23,.93-.49,.39-.77,.78-1.04,1.42-.24,.58-.13,1.58,.27,2.4,.27,.55,.49,.73,1.17,.93,.79,.24,1.02,.32,1.13,.42,.09,.08,.1,.15,.06,1.09l-.04,1.01,.14,.29c.21,.44,.62,.71,1.74,1.16,1.22,.48,4.47,2.24,6.17,3.32,2.13,1.36,2.58,1.79,2.7,2.55,.09,.56-.32,1.42-1.02,2.16-.27,.28-.75,.84-1.08,1.23-.32,.4-.88,1.02-1.23,1.39-.67,.7-.96,1.09-1.24,1.65-.32,.62-.33,1.09-.05,1.36,.18,.16,.55,.13,.94-.06,.52-.26,1.87-1.55,3.18-3.05,1.32-1.52,2.66-3.45,3.67-5.28,.11-.21,.37-.66,.58-.99,.91-1.5,1.57-3.21,1.87-4.85,.05-.24,.15-.73,.24-1.08,.61-2.45,.86-4.53,.86-7.2,0-4.19-.79-7.99-2.46-11.82-1.06-2.42-2.65-5-4.37-7.05-.21-.25-.45-.55-.54-.67-.09-.12-.46-.52-.84-.89-.61-.62-.72-.7-1.12-.88-.58-.26-.9-.27-1.23-.06-.36,.24-.44,.49-.47,1.45,0,.49-.07,1.11-.15,1.61-.06,.44-.19,1.47-.26,2.29-.08,.82-.18,1.76-.25,2.09-.05,.32-.13,.76-.16,.97-.21,1.38-.25,1.51-.55,1.81-.32,.32-.71,.43-1.88,.55-1.19,.12-3.43,.65-4.36,1.04"/><path class="cls-2" d="M31.65,20.49c.33,.09,.6,.09,.92,.01,.31-.08,.79-.53,.98-.93,.15-.32,.2-.8,.11-1.06-.13-.41-.78-.82-1.41-.91-.23-.04-.28-.03-.58,.17-.61,.38-.74,.49-.89,.75-.13,.22-.15,.31-.15,.66s.02,.43,.16,.67c.19,.31,.51,.55,.86,.64"/><path class="cls-2" d="M28.87,18.17c.18-.39,1.62-1.18,2.45-1.34,1.6-.31,3.43,.43,4.09,1.66l.17,.32-.09,.21c-.06,.12-.41,.53-.82,.94-.71,.72-1.03,.97-1.6,1.2-.15,.06-.42,.11-.75,.12-.44,.02-.56,0-.88-.12-.96-.35-2.03-1.42-2.45-2.44-.14-.36-.17-.46-.12-.57m-4.02,.42c-.48,.32-2.21,1.65-3.03,2.32-.67,.55-1.47,1.36-1.72,1.72-.2,.3-.2,.32-.2,.79,0,.61,.15,1.12,.45,1.57,.32,.48,.76,.8,1.47,1.07,.36,.13,2.4,.69,3.25,.88,.81,.18,1.02,.3,1.26,.72,.15,.26,.14,.41-.07,.88-.18,.42-.53,.89-1.06,1.4-.31,.3-.46,.49-.46,.57,0,.24,.22,.82,.42,1.13,.33,.51,.54,.66,1.16,.77,.37,.08,.58,.25,.67,.57,.12,.41,.18,1.74,.12,2.4-.07,.77-.19,1.06-.57,1.42-.45,.43-1.11,.71-2.11,.92-1.39,.28-1.75,.6-1.62,1.42,.12,.75,.42,1.22,1.01,1.63,.36,.24,.66,.56,.81,.85,.06,.12,.18,.5,.26,.86,.27,1.07,.74,1.88,1.34,2.31,.72,.5,1.91,.88,3.2,1.01,.68,.07,2.14,.06,2.81-.02,2.09-.26,3.39-.9,4.09-2.03,.45-.74,.68-1.45,1.1-3.41,.24-1.12,.29-1.45,.33-2.23,.03-.5,.07-1.28,.1-1.74,.03-.46,.07-1.45,.1-2.2,.18-4.17,.23-5.19,.32-5.73,.03-.19,.08-.71,.11-1.15,.11-1.46,.23-1.96,.64-2.63,.14-.24,.44-.78,.66-1.2,.48-.93,.78-1.27,1.39-1.58,.52-.26,1.1-.38,2.26-.46,.51-.03,1.15-.09,1.41-.13,1.03-.17,2.02-.61,2.63-1.17,.99-.91,1.23-1.82,1.34-5.05,.05-1.7-.33-3.28-.96-3.9-.48-.46-2.31-1.56-3.77-2.27-3.3-1.6-7.06-2.51-11.35-2.76-1.11-.06-1.38-.03-1.91,.24-.68,.35-.76,.49-1.11,2.13-.54,2.49-.7,3.08-1.35,4.71-.64,1.63-1.39,3.06-2.16,4.14-.39,.54-.66,.8-1.29,1.23"/><path class="cls-2" d="M1.44,45.32c1.07,3.23,2.69,6.27,4.79,8.98,.57,.73,1.59,1.91,1.85,2.12,.12,.1,.4,.35,.62,.55,.45,.41,.66,.52,1.12,.58,.76,.09,1.2,.02,1.46-.23,.18-.17,.18-.19,.16-.46-.04-.4-.23-.78-.66-1.28-.2-.24-.6-.72-.89-1.07-.28-.35-.9-1.05-1.38-1.55-.47-.5-.9-.96-.94-1.02-.11-.15,0-.46,.22-.72,.22-.24,.85-.53,2.22-1.03,1.63-.6,2.2-.9,2.77-1.47,.29-.29,.44-.49,.6-.83,.34-.7,.44-1.2,.48-2.31l.03-.94-.23-.56c-.19-.45-.23-.62-.23-.9,0-.34,0-.37,.31-.88,.51-.84,.6-1.2,.41-1.63-.17-.38-.54-.69-.98-.82-.35-.1-.44-.11-1.24-.07-1.25,.07-1.38,.06-1.58-.08-.09-.06-.18-.17-.19-.23-.01-.07-.1-.47-.19-.89-.1-.43-.19-.99-.2-1.25-.04-.81,.15-1.11,1.19-1.89,1.01-.75,1.24-1.1,1.2-1.78-.03-.45-.17-.77-.48-1.1-.23-.25-.24-.26-.75-.33-.69-.11-1.13-.26-1.31-.45-.33-.35-.21-1.07,.27-1.6,.26-.29,.39-.36,1-.49,1.32-.3,3.29-2.48,3.36-2.95l.12-.74-.11-.42c-.24-.96-.59-1.45-2.13-3.02-1.51-1.54-1.89-2.07-2.14-3.05-.24-.9,.14-2.16,.97-3.25,.64-.85,1.47-1.51,3.97-3.16,2.17-1.45,4.1-2.52,5.83-3.22,.32-.13,1.27-.45,2.1-.71,2.43-.77,3.39-1.21,3.98-1.82,.42-.44,.38-.62-.15-.7-.72-.1-1.44-.06-2.4,.13-.5,.1-1,.2-1.11,.22-.53,.09-2.86,.77-3.7,1.1-.78,.3-1.09,.44-2.53,1.19-3.15,1.65-4.95,2.88-7.33,5.03-2.03,1.84-3.43,3.47-5.12,5.99-1.23,1.84-1.75,2.9-2.58,5.28-1.05,3-1.49,4.83-1.79,7.53-.13,1.22-.16,4.23-.05,5.44,.23,2.51,.67,4.63,1.37,6.78Z"/><path class="cls-1" d="M50.8,0c-.31,0-1.02,.81-1.2,1.38-.1,.31-.31,4.97-.32,7.14,0,1.68,.04,1.9,.48,2.34,.18,.18,.34,.29,.49,.33,.48,.13,.77,.05,1-.27,.21-.29,.26-.51,.3-1.65,.18-4.15,.2-7.18,.04-8.05-.13-.74-.45-1.22-.78-1.22"/><path class="cls-1" d="M40.54,72.96c-.16,.17-.46,.18-.61,.03-.41-.4-.89-3.3-1.08-6.51-.03-.5-.1-1.41-.16-2.01-.06-.6-.1-1.2-.08-1.34,.04-.31,.16-.49,.32-.49,.27,0,.42,.36,1.4,3.17,.74,2.14,.93,3.03,.93,4.27,0,1.06-.37,2.52-.72,2.87m-2.16-15.31s-.03-1.55,0-3.58c.02-2.72,.05-3.7,.12-4.33,.19-1.69,.44-2.75,.72-3.06,.09-.09,.19-.17,.23-.17,.1,0,.33,.16,.51,.37,.73,.85,1.13,2.63,.98,4.42-.19,2.36-1.1,5.29-1.9,6.12-.21,.22-.31,.28-.44,.28-.09,0-.19-.03-.21-.06m-6.54,9.56c-.21,.1-.48,.18-.64,.19-.34,.03-.37-.01-.33-.46,.05-.46,.35-1.02,.84-1.52,.39-.41,1-.9,1.12-.9,.1,0,.17,.19,.2,.57,.08,.91-.39,1.74-1.2,2.12m16.88-8.54c-.48-.21-.89-.05-2.05,.79-2.01,1.46-2.81,1.85-3.74,1.84-.54,0-.98-.13-1.49-.42-.39-.23-1.47-1.29-1.47-1.45,0-.07,.12-.25,.27-.42,.75-.83,1.38-2.08,1.78-3.52,.6-2.14,.99-6.41,.71-7.88-.3-1.64-1.02-2.84-2.13-3.56-.78-.5-1.42-.58-2.06-.27-.42,.21-1,.74-1.35,1.22-.28,.4-.67,1.21-.78,1.66-.21,.79-.27,2.21-.37,8.76l-.06,4.53-.2,.22c-.4,.42-1.08,.67-1.52,.55-.61-.17-1.14-1.16-1.51-2.81-.11-.51-.14-.79-.17-2.01-.05-1.58-.07-1.74-.39-2.05-.28-.28-.56-.35-.87-.24-.43,.16-.85,.75-1.67,2.31-.72,1.39-1.12,1.93-2.17,2.98-.77,.77-1.71,1.56-3.03,2.54-1.3,.97-1.49,1.1-1.85,1.25-.73,.3-1.08,.01-1.18-.93-.02-.26-.06-1.2-.08-2.1-.01-.9-.08-3-.13-4.66-.13-3.68-.13-3.36-.02-3.4,.05-.02,.68-.08,1.41-.14,2.26-.18,2.28-.19,2.5-.3,.62-.3,.6-1.06-.05-1.77-.15-.17-.33-.31-.45-.35-.14-.04-.64-.05-1.81-.04l-1.61,.02-.04-.89c-.04-1.02-.11-1.59-.29-2.1-.23-.68-.53-1.05-.93-1.17-.81-.24-1.1,.66-1.07,3.26,.02,.86,0,1.37-.04,1.41-.03,.03-.59,.19-1.24,.38-1.4,.37-1.59,.45-1.95,.79-.58,.55-.7,1.18-.29,1.63,.27,.29,.58,.4,1.18,.4,.55,0,1.15-.14,1.87-.42,.33-.13,.47-.17,.5-.12,.06,.07,.12,2.36,.13,4.99,0,1.52,0,2.04-.06,2.22-.1,.31-.54,.77-1.02,1.03-.76,.42-2.18,.78-2.72,.67-.13-.02-.38-.12-.55-.22-.4-.22-1.18-1.02-1.58-1.61-.36-.5-.47-.59-.86-.59-.3,0-.46,.1-.58,.35-.16,.34-.12,.62,.18,1.19,.52,.99,.86,1.48,1.36,1.98,.69,.69,1.27,.99,2.15,1.1,1.03,.13,2.27-.3,3.22-1.1,.15-.13,.31-.24,.35-.24,.09,0,.54,.54,.68,.83,.06,.12,.12,.3,.15,.4,.09,.47,.44,.88,.95,1.13,.71,.36,1.95,.5,2.56,.29,1.37-.47,3.32-2,5.59-4.4,1.71-1.8,1.6-1.7,1.68-1.62,.03,.04,.21,.33,.4,.66,.19,.32,.55,.92,.81,1.32,.26,.4,.48,.77,.48,.83s-.04,.24-.09,.41c-.09,.31-.12,.34-.9,1.05-1.37,1.24-1.94,1.88-2.35,2.72-.37,.72-.48,1.58-.3,2.14,.2,.57,.74,1.08,1.51,1.46,1.33,.64,2.62,.34,3.79-.88,.63-.66,.89-1.32,1.06-2.6,.05-.41,.04-1.45-.02-2.66,0-.22,0-.25,.15-.32,.22-.1,.75-.11,.85,0,.13,.13,.4,3.07,.62,6.89,.06,1.03,.15,2.14,.19,2.45,.26,1.82,1.02,2.99,2.1,3.25,1.11,.27,2.68-.44,3.55-1.59,.66-.89,.94-2.5,.85-4.82-.08-1.75-.27-2.97-.85-5.25-.04-.12,.1-.16,.86-.24,1.96-.22,3.87-1.04,5.48-2.33,1.28-1.03,1.28-1.81,0-2.38"/></g></g></svg>