<svg xmlns="http://www.w3.org/2000/svg" xmlns:xlink="http://www.w3.org/1999/xlink" viewBox="0 0 46.54 50.17">
  <defs>
    <style>
      .cls-1 {
        fill: none;
      }

      .cls-2 {
        clip-path: url(#clip-path);
      }

      .cls-3 {
        fill: #459f71;
      }
    </style>
    <clipPath id="clip-path" transform="translate(0 0)">
      <rect class="cls-1" width="46.54" height="50.17"/>
    </clipPath>
  </defs>
  <g id="Layer_2" data-name="Layer 2">
    <g id="Layer_1-2" data-name="Layer 1">
      <g>
        <g class="cls-2">
          <path class="cls-3" d="M26.93,50.17l-.19-.43v.32l-.41-.18a6.09,6.09,0,0,1-3.07-3.17,6.09,6.09,0,0,1-3.07,3.17l-.41.18v-.32l-.19.43,0-1.27a4.66,4.66,0,0,1,1.47-3.66,9.32,9.32,0,0,1-7.71.66l-.43-.15.32-.32a3.67,3.67,0,0,1,.89-.62h0l-1.19.48.88-.93a7.67,7.67,0,0,1,9.4-1.55l.07,0,.07,0a7.66,7.66,0,0,1,9.4,1.55l.88.93-1.19-.48h0a3.67,3.67,0,0,1,.89.62l.32.32-.43.15a9.32,9.32,0,0,1-7.71-.66A4.68,4.68,0,0,1,27,48.9Zm-3.38-4.63a4.93,4.93,0,0,0,2.53,3.57,11.56,11.56,0,0,0-2.45-3.68L24,45a17.49,17.49,0,0,1,2.21,2.56,4.17,4.17,0,0,0-2.67-2.89A5.66,5.66,0,0,1,23.55,45.54ZM22.5,45l.41.39a11.56,11.56,0,0,0-2.45,3.68A4.93,4.93,0,0,0,23,45.54a5.66,5.66,0,0,1,0-.83,4.17,4.17,0,0,0-2.67,2.89A17.49,17.49,0,0,1,22.5,45Zm1.42-1.9a8,8,0,0,0,8.59,2.38c-.86-.58-2.84-1.36-7.35-1.77l0-.56a27.88,27.88,0,0,1,6.22.69A7.08,7.08,0,0,0,23.92,43.14ZM14,45.52a8,8,0,0,0,8.6-2.38,6.93,6.93,0,0,0-7.49.75,27.47,27.47,0,0,1,6.22-.7l0,.56C16.87,44.16,14.89,44.94,14,45.52Zm9.5-1.42a5.53,5.53,0,0,1,1,.44,8.64,8.64,0,0,1-1.25-1.3A9.15,9.15,0,0,1,22,44.54a5.53,5.53,0,0,1,1-.44V44l.25.06.25-.06Zm10.57-.69a8,8,0,0,1-3.51-.86L29.43,42l1.28,0h0a3.9,3.9,0,0,1-1-.26l-.42-.18.35-.3c.82-.7,5.2-4.07,10.23-1.07l.27.16-.19.25A8,8,0,0,1,34.1,43.41ZM32,42.51a7,7,0,0,0,7.25-2,8,8,0,0,0-8.88.87c1,.23,3.14.25,7.49-1l.18.53A27,27,0,0,1,32,42.51Zm-19.57.9a8,8,0,0,1-5.82-2.79l-.2-.25.28-.16c5-3,9.41.37,10.23,1.07l.35.3-.42.18a3.9,3.9,0,0,1-1,.26h0l1.28,0L16,42.55A8,8,0,0,1,12.44,43.41ZM7.28,40.52a6.92,6.92,0,0,0,7.25,2,27.49,27.49,0,0,1-6-1.59l.19-.53c4.34,1.24,6.48,1.22,7.49,1A8,8,0,0,0,7.28,40.52Zm2.08-1.88A8.15,8.15,0,0,1,1.9,33.73l-.12-.31.33-.06C8,32.14,11.3,36.74,11.9,37.67l.25.4-.47,0a4.2,4.2,0,0,1-1.1-.09h0l1.28.4-1.33.15A9.41,9.41,0,0,1,9.36,38.64Zm-6.8-4.8a7.44,7.44,0,0,0,6.59,4.24,29,29,0,0,1-5.5-3.46L4,34.17c3.93,2.59,6.06,3.26,7.14,3.36A8.64,8.64,0,0,0,2.56,33.84Zm34.62,4.8A9.41,9.41,0,0,1,36,38.57l-1.33-.15L36,38h0a4.24,4.24,0,0,1-1.11.09l-.47,0,.26-.4c.6-.93,3.89-5.53,9.79-4.31l.33.06-.12.31A8.15,8.15,0,0,1,37.18,38.64Zm5.38-4.47.33.45a28.8,28.8,0,0,1-5.49,3.46A7.52,7.52,0,0,0,44,33.84a8.63,8.63,0,0,0-8.55,3.69C36.5,37.43,38.63,36.76,42.56,34.17Zm-3.74-.69,1-.66a4,4,0,0,1-.84.32l-.45.1.11-.45c.28-1,1.92-6.2,7.62-6.72l.32,0,0,.32a7.69,7.69,0,0,1-6.41,6.89Zm7.1-6.81a8,8,0,0,0-6.62,5.75c1-.41,2.67-1.62,5.44-5.08l.46.34a27.67,27.67,0,0,1-3.94,4.69A7.09,7.09,0,0,0,45.92,26.67ZM7.72,33.48l-1.29-.23A7.69,7.69,0,0,1,0,26.36L0,26l.32,0c5.71.52,7.35,5.69,7.62,6.72l.11.45-.45-.1a4,4,0,0,1-.84-.32ZM1.8,27.34C4.57,30.8,6.29,32,7.24,32.42A8,8,0,0,0,.62,26.67a7,7,0,0,0,4.66,5.7,27.67,27.67,0,0,1-3.94-4.69Zm3.35.44L4,27.07a7.82,7.82,0,0,1-3.6-9l.1-.31L.81,18a9.08,9.08,0,0,1,4.83,9.28l-.06.46-.38-.26a4.3,4.3,0,0,1-.77-.71Zm-3.4-8.06c1.39,4.36,2.61,6.17,3.38,6.92a8.31,8.31,0,0,0-4.27-8,7.08,7.08,0,0,0,2.39,7.22,28.64,28.64,0,0,1-2-6Zm39.64,8.06.72-1.07a3.78,3.78,0,0,1-.77.72l-.38.26-.06-.46A9.08,9.08,0,0,1,45.73,18L46,17.8l.1.31a7.82,7.82,0,0,1-3.6,9Zm4.29-9.17a8.31,8.31,0,0,0-4.27,8c.77-.75,2-2.56,3.38-6.92l.55.14a28.45,28.45,0,0,1-2.05,6A7.08,7.08,0,0,0,45.68,18.61ZM41,21.11l-.21-.4A8.37,8.37,0,0,1,42,11l.21-.23.21.24a7.21,7.21,0,0,1-.18,9l-.81,1,.25-1a3.24,3.24,0,0,1-.37.68Zm1.14-9.49A7.58,7.58,0,0,0,41.08,20c.43-.92.89-2.9.66-7.13l.56-.06a26.26,26.26,0,0,1,.2,5.8A6.56,6.56,0,0,0,42.17,11.62ZM5.51,21.11l-.26-.37a3.24,3.24,0,0,1-.37-.68l.25,1-.81-1a7.19,7.19,0,0,1-.18-9l.21-.24.21.23a8.37,8.37,0,0,1,1.16,9.73ZM4.24,12.79l.56.06c-.23,4.23.23,6.21.66,7.13a7.6,7.6,0,0,0-1.09-8.37,6.45,6.45,0,0,0-.33,7A25.67,25.67,0,0,1,4.24,12.79Zm33.33.72.1-1.66-1.56-.62,1.63-.42.1-1.67.9,1.42,1.63-.42L39.3,11.43l.9,1.41-1.56-.61Zm.36-2.17.33.13,0,.36.22-.28.33.13-.19-.29.23-.28-.34.09-.19-.3,0,.36ZM9.22,13.51,8.15,12.23l-1.56.61.9-1.41L6.42,10.14l1.63.42L9,9.14l.1,1.67,1.63.42-1.56.62Zm-.9-2,.23.28,0-.36.33-.13-.35-.08,0-.36-.19.3L8,11.11l.22.28L8,11.68Zm26.77-1-.61-1.83H32.54l1.57-1.14L33.5,5.76l1.57,1.12,1.56-1.14L36,7.57,37.61,8.7H35.68Zm-.2-2.4.19.58.18-.58h.61l-.49-.36.18-.58-.49.36-.49-.35.19.58-.49.35ZM11.7,10.54l-.59-1.83H9.17l1.58-1.13-.59-1.83,1.56,1.14,1.57-1.12-.61,1.83,1.57,1.14H12.31Zm-.78-2.39h.6l.19.58.19-.58h.61L12,7.8l.19-.58-.49.35-.5-.36.19.58Zm20.44.17L30,6.52l-2.14.71L29.19,5.4,27.85,3.6,30,4.27l1.31-1.82,0,2.24,2.15.68-2.14.71ZM30.23,5.85l.55.75V5.67l.87-.29-.88-.28V4.18l-.54.75-.88-.28.55.75-.54.75ZM15.43,8.32l0-2.24L13.3,5.37l2.16-.68,0-2.24,1.31,1.82,2.15-.67L17.59,5.4,18.9,7.23l-2.13-.71Zm-.29-2.94.87.29V6.6l.56-.75.88.3L16.9,5.4l.55-.75-.89.28L16,4.18V5.1Zm6,1.19L22,4.06,19.82,2.51h2.66L23.29,0l.82,2.51h2.66L24.62,4.06l.82,2.51L23.29,5Zm2.14-2.25,1.08.78L24,3.84,25,3.07H23.71l-.42-1.26-.41,1.26H21.56l1.07.77L22.22,5.1Z" transform="translate(0 0)"/>
        </g>
        <path class="cls-3" d="M11.73,23.91V22.2l3.58-3.13c.27-.24.5-.47.69-.67a2.53,2.53,0,0,0,.43-.61,1.54,1.54,0,0,0,.15-.68,1.27,1.27,0,0,0-.18-.69,1.12,1.12,0,0,0-.49-.45,1.66,1.66,0,0,0-1.42,0,1.11,1.11,0,0,0-.48.48,1.5,1.5,0,0,0-.17.76H11.59A3.21,3.21,0,0,1,12,15.48a3,3,0,0,1,1.27-1.13,4.36,4.36,0,0,1,1.9-.39,4.66,4.66,0,0,1,1.94.37,3,3,0,0,1,1.28,1,2.74,2.74,0,0,1,.45,1.55A2.94,2.94,0,0,1,18.66,18a4.39,4.39,0,0,1-.81,1.21,17.28,17.28,0,0,1-1.65,1.6L15,21.93V22h4v1.91Z" transform="translate(0 0)"/>
        <path class="cls-3" d="M24.11,24a4.46,4.46,0,0,1-1.91-.38,3.28,3.28,0,0,1-1.32-1.07,2.77,2.77,0,0,1-.5-1.57h2.3a1.13,1.13,0,0,0,.44.87,1.55,1.55,0,0,0,1,.33A1.59,1.59,0,0,0,24.9,22a1.39,1.39,0,0,0,.54-.56,1.89,1.89,0,0,0,0-1.65,1.45,1.45,0,0,0-.55-.55,1.51,1.51,0,0,0-.8-.2,1.91,1.91,0,0,0-.81.18,1.39,1.39,0,0,0-.57.53l-2.1-.4L21,14.09h6.3V16H23l-.23,2.32h.06a1.83,1.83,0,0,1,.79-.67,2.76,2.76,0,0,1,1.24-.27,3,3,0,0,1,1.57.41,2.91,2.91,0,0,1,1.1,1.13,3.48,3.48,0,0,1,.4,1.66,3.36,3.36,0,0,1-.48,1.8,3.27,3.27,0,0,1-1.33,1.22A4.24,4.24,0,0,1,24.11,24Z" transform="translate(0 0)"/>
        <path class="cls-3" d="M29.65,20.92V19h6.94v1.93Zm2.51,2.5V16.48h1.93v6.94Z" transform="translate(0 0)"/>
        <path class="cls-3" d="M9.32,28.16H10L12,31.27H12l1.94-3.11h.69l-2.36,3.72v2.83h-.59V31.88Z" transform="translate(0 0)"/>
        <path class="cls-3" d="M15.76,34.71V28.16h3.8v.54h-3.2v2.47h3v.53h-3v2.47h3.26v.54Z" transform="translate(0 0)"/>
        <path class="cls-3" d="M21.11,34.71h-.63l2.38-6.55h.64l2.38,6.55h-.62l-2.05-5.77h-.05Zm.45-2.51h3.25v.54H21.56Z" transform="translate(0 0)"/>
        <path class="cls-3" d="M27,34.71V28.16h2.11a2.4,2.4,0,0,1,1.16.26,1.58,1.58,0,0,1,.71.69,2.25,2.25,0,0,1,0,2,1.66,1.66,0,0,1-.7.69,2.55,2.55,0,0,1-1.16.24h-1.8v-.54h1.78a1.92,1.92,0,0,0,.85-.17,1.19,1.19,0,0,0,.51-.48,1.6,1.6,0,0,0,.17-.75,1.66,1.66,0,0,0-.17-.75,1.1,1.1,0,0,0-.51-.49,1.83,1.83,0,0,0-.86-.18H27.6v6Zm2.88-2.95,1.61,2.95h-.69l-1.59-2.95Z" transform="translate(0 0)"/>
        <path class="cls-3" d="M36.24,29.8a1.24,1.24,0,0,0-.48-.87,1.8,1.8,0,0,0-1.08-.32,1.84,1.84,0,0,0-.8.16,1.2,1.2,0,0,0-.55.43,1,1,0,0,0-.19.63.84.84,0,0,0,.11.45.94.94,0,0,0,.3.33,1.76,1.76,0,0,0,.42.24,4.43,4.43,0,0,0,.47.17l.69.2a3.94,3.94,0,0,1,.63.22,2.66,2.66,0,0,1,.57.33,1.83,1.83,0,0,1,.42.5,1.51,1.51,0,0,1,.16.7,1.69,1.69,0,0,1-.27.94,2,2,0,0,1-.78.67,2.85,2.85,0,0,1-1.22.24,2.76,2.76,0,0,1-1.16-.22A1.86,1.86,0,0,1,32.7,34a1.74,1.74,0,0,1-.31-.91H33a1.14,1.14,0,0,0,.26.66,1.45,1.45,0,0,0,.58.41,2.24,2.24,0,0,0,.8.14,2.21,2.21,0,0,0,.87-.17,1.46,1.46,0,0,0,.6-.46,1.12,1.12,0,0,0,.22-.69.93.93,0,0,0-.17-.56,1.35,1.35,0,0,0-.49-.37,3.62,3.62,0,0,0-.71-.28l-.78-.23a2.89,2.89,0,0,1-1.2-.63,1.39,1.39,0,0,1-.42-1,1.57,1.57,0,0,1,.28-.93,1.91,1.91,0,0,1,.77-.62,2.67,2.67,0,0,1,2.17,0,1.78,1.78,0,0,1,.74.61,1.64,1.64,0,0,1,.3.89Z" transform="translate(0 0)"/>
      </g>
    </g>
  </g>
</svg>
