<?xml version="1.0" encoding="utf-8"?>
<!-- Generator: Adobe Illustrator 26.0.1, SVG Export Plug-In . SVG Version: 6.00 Build 0)  -->
<svg version="1.1" id="Layer_1" xmlns="http://www.w3.org/2000/svg" xmlns:xlink="http://www.w3.org/1999/xlink" x="0px" y="0px"
	 viewBox="0 0 272.1 367.4" style="enable-background:new 0 0 272.1 367.4;" xml:space="preserve">
<style type="text/css">
	.st0{fill:#009863;}
</style>
<path class="st0" d="M181,193.8c-1.6,1.3-1.9,3.6-0.7,5.3s3.6,1.9,5.3,0.7l0,0c35.2-27.4,41.6-78.1,14.2-113.4
	c-27.4-35.2-78.1-41.6-113.4-14.2s-41.6,78.1-14.2,113.4c4.9,6.3,10.6,11.8,17.1,16.4c1.7,1.2,4,0.8,5.2-0.9s0.8-4-0.9-5.2
	c-33-23.4-40.9-69.1-17.5-102.2s69.1-40.9,102.2-17.5s40.9,69.1,17.5,102.2C191.7,184.2,186.7,189.4,181,193.8z"/>
<path class="st0" d="M71.1,255.1c2.1,0,3.7-1.7,3.7-3.8c0-1.3-0.7-2.6-1.9-3.2C11.1,213.3-10.8,134.9,24,73
	C46.8,32.5,89.6,7.5,136,7.5c70.9,0,128.6,57.7,128.6,128.6c-0.1,45.2-23.9,87.1-62.7,110.4c-1.8,1.1-2.3,3.4-1.3,5.1
	s3.4,2.3,5.1,1.3l0,0c41-24.7,66.2-69,66.3-116.8c0-75-61-136-136.1-136S0,61.1,0,136.1c0.1,49.1,26.5,94.4,69.3,118.5
	C69.9,254.9,70.5,255.1,71.1,255.1z"/>
<path class="st0" d="M166.2,139.1c0-16.7-13.5-30.2-30.2-30.2c-16.7,0-30.2,13.5-30.2,30.2c0,10.9,5.9,21,15.4,26.3l0,0l-80.1,202
	h7.7L61,336.5l76.4-48.2l76,48l12.3,31h7.7l-80.6-203.2C161.2,158.5,166.2,149.1,166.2,139.1z M113.4,139.1
	c0-12.5,10.2-22.7,22.7-22.7c12.5,0,22.7,10.2,22.7,22.7c0,12.5-10.2,22.7-22.7,22.7C123.5,161.8,113.4,151.6,113.4,139.1z
	 M111.5,209.5l19.5,13l-33.4,22.3L111.5,209.5z M65.6,325.2l26.1-65.8l39,24.7L65.6,325.2z M209,325L144.1,284l38.8-24.5L209,325z
	 M137.4,279.8L96.5,254l40.9-27.2l40.9,27.2L137.4,279.8z M177,244.6l-33.2-22.1l19.3-12.8L177,244.6z M137.4,218.2l-23.2-15.5
	l13.7-34.5l0.3,0.1c5.9,1.6,12.1,1.4,17.9-0.7l0.4-0.1l14,35.4L137.4,218.2z"/>
</svg>
