<?xml version="1.0" encoding="utf-8"?>
<!-- Generator: Adobe Illustrator 26.0.1, SVG Export Plug-In . SVG Version: 6.00 Build 0)  -->
<svg version="1.1" id="Layer_1" xmlns="http://www.w3.org/2000/svg" xmlns:xlink="http://www.w3.org/1999/xlink" x="0px" y="0px"
	 viewBox="0 0 353.9 326.2" style="enable-background:new 0 0 353.9 326.2;" xml:space="preserve">
<style type="text/css">
	.st0{fill:#009863;}
</style>
<path class="st0" d="M112.4,262.4H246v-69.2H112.4V262.4z M119.8,200.6h118.9V255H119.8V200.6z"/>
<rect x="108.9" y="155.7" class="st0" width="133.4" height="7.4"/>
<rect x="108.9" y="112.5" class="st0" width="133.4" height="7.4"/>
<rect x="108.9" y="69.3" class="st0" width="133.4" height="7.4"/>
<path class="st0" d="M283.1,65.7V0H72.3v65.7H0v190.5h17.7v19.5h54.6v20.2h27.5v30.3h153.7v-30.3h29.5v-20.2h51.8v-19.5h19V65.7
	H283.1z M72.3,271H22.5v-14.8h49.8V271z M72.3,251.4H4.8v-181h67.5V251.4z M246.2,318.9h-139v-22.9h139V318.9z M275.7,288.6H79.7
	V7.4h196.1V288.6z M330.2,271h-47v-14.8h47V271z M349.2,251.4h-66v-181h66L349.2,251.4z"/>
</svg>
