<?xml version="1.0" encoding="utf-8"?>
<!-- Generator: Adobe Illustrator 26.0.1, SVG Export Plug-In . SVG Version: 6.00 Build 0)  -->
<svg version="1.1" id="Layer_1" xmlns="http://www.w3.org/2000/svg" xmlns:xlink="http://www.w3.org/1999/xlink" x="0px" y="0px"
	 viewBox="0 0 408.6 320.1" style="enable-background:new 0 0 408.6 320.1;" xml:space="preserve">
<style type="text/css">
	.st0{fill:#009863;}
</style>
<path class="st0" d="M240.9,86.1h-18V59.7h-22.5V49.4c4.7-0.6,8-5,7.4-9.7c-0.6-4.7-5-8-9.7-7.4c-4.7,0.6-8,5-7.4,9.7
	c0.5,3.8,3.5,6.8,7.4,7.4v10.4h-24v26.4h-18V16.4l-64.7-0.1v138.4h61.3v0.5h46.2l0,0h1.7l0,0h43.8v-0.5h61.2V0l-64.7,16.7V86.1z
	 M193,40.9c0-3.5,2.8-6.3,6.3-6.3c3.5,0,6.3,2.8,6.3,6.3c0,3.5-2.8,6.3-6.3,6.3c0,0,0,0,0,0C195.8,47.2,193,44.4,193,40.9
	C193,40.9,193,40.9,193,40.9L193,40.9z M152.6,86.1v65.1H94.8V19.7l57.8,0.1L152.6,86.1z M240.9,151.8H156V89.6h21.5V63.2h41.9v26.4
	h21.5V151.8z M244.4,86.1V19.4l57.8-14.9v146.8h-57.9L244.4,86.1z"/>
<rect x="256.2" y="36.2" class="st0" width="12.1" height="12.1"/>
<rect x="275.9" y="36.2" class="st0" width="12.1" height="12.1"/>
<rect x="256.2" y="62.5" class="st0" width="12.1" height="12.1"/>
<rect x="275.9" y="62.5" class="st0" width="12.1" height="12.1"/>
<rect x="256.2" y="88.9" class="st0" width="12.1" height="12.1"/>
<rect x="275.9" y="88.9" class="st0" width="12.1" height="12.1"/>
<rect x="167.1" y="101.4" class="st0" width="12.1" height="12.1"/>
<rect x="193.6" y="101.4" class="st0" width="12.1" height="12.1"/>
<rect x="220.1" y="101.4" class="st0" width="12.1" height="12.1"/>
<rect x="167.1" y="121.3" class="st0" width="12.1" height="12.1"/>
<rect x="193.6" y="121.3" class="st0" width="12.1" height="12.1"/>
<rect x="220.1" y="121.3" class="st0" width="12.1" height="12.1"/>
<rect x="193.6" y="73.4" class="st0" width="12.1" height="12.1"/>
<rect x="256.2" y="115.3" class="st0" width="12.1" height="12.1"/>
<rect x="275.9" y="115.3" class="st0" width="12.1" height="12.1"/>
<rect x="107.8" y="36.2" class="st0" width="12.1" height="12.1"/>
<rect x="127.5" y="36.2" class="st0" width="12.1" height="12.1"/>
<rect x="107.8" y="62.5" class="st0" width="12.1" height="12.1"/>
<rect x="127.5" y="62.5" class="st0" width="12.1" height="12.1"/>
<rect x="107.8" y="88.9" class="st0" width="12.1" height="12.1"/>
<rect x="127.5" y="88.9" class="st0" width="12.1" height="12.1"/>
<rect x="107.8" y="115.3" class="st0" width="12.1" height="12.1"/>
<rect x="127.5" y="115.3" class="st0" width="12.1" height="12.1"/>
<path class="st0" d="M354.1,179.6v10.4H349v1.7h5.2v36.1h8.8v6.3h37.3v-6.3h8.4v-48.2H354.1z M396.7,230.6h-30.4v-2.8h30.4
	L396.7,230.6z M405.2,224.3h-47.6v-16.9h47.6L405.2,224.3z M405.2,201.7h-47.6V183h47.6L405.2,201.7z"/>
<rect x="367.4" y="190.8" class="st0" width="5.3" height="3.7"/>
<rect x="379" y="190.8" class="st0" width="5.3" height="3.7"/>
<rect x="390.5" y="190.8" class="st0" width="5.3" height="3.7"/>
<rect x="367.4" y="213.6" class="st0" width="5.3" height="3.7"/>
<rect x="379" y="213.6" class="st0" width="5.3" height="3.7"/>
<rect x="390.5" y="213.6" class="st0" width="5.3" height="3.7"/>
<path class="st0" d="M365,171h13.1v2.9c0,0.6,0.5,1.1,1.1,1.1h5.4c0.6,0,1.1-0.5,1.1-1.1V171h8.5c5.6,0.1,10.2-4.4,10.2-9.9
	c0.1-5.6-4.4-10.2-9.9-10.2l0,0c-1.2-5-6.3-8.1-11.3-6.9c-3.2,0.8-5.7,3.1-6.7,6.2c-0.7-0.2-1.4-0.3-2.1-0.3c-3.6,0-6.6,2.8-6.8,6.5
	c-0.4-0.1-0.8-0.1-1.3-0.1c-4.1,0-7.4,3.3-7.4,7.4c0,0,0,0,0,0C358.7,167.2,361.4,170.4,365,171z M385.4,164.9
	c-0.4,0-0.8,0.3-0.8,0.8v8.2c0,0.1-0.1,0.1-0.1,0.1l0,0h-5.4c-0.1,0-0.1-0.1-0.1-0.1l0,0v-8.2c0-0.4-0.3-0.8-0.8-0.8l0,0h-2.7
	l6.2-7.5c0,0,0.1,0,0.1,0l6.2,7.5H385.4z M366.1,157.2c0.6,0,1.1,0.1,1.7,0.2l0.7,0.2v-0.8c0-0.1,0-0.1,0-0.2c0-3.2,2.6-5.8,5.7-5.8
	h0c0.8,0,1.6,0.2,2.3,0.5l0.6,0.3l0.2-0.6c1.1-4.4,5.6-7.1,10-6c3.1,0.8,5.5,3.3,6.1,6.5l0.1,0.5h0.6c5,0.4,8.6,4.8,8.2,9.7
	c-0.4,4.4-3.8,7.9-8.2,8.2h-8.5v-4h2.7c0.3,0,0.6-0.2,0.8-0.5c0.1-0.3,0.1-0.6-0.2-0.9l-6.4-7.6c-0.4-0.4-1-0.5-1.4-0.1
	c0,0-0.1,0.1-0.1,0.1l-6.4,7.6c-0.2,0.2-0.3,0.6-0.2,0.9c0.1,0.3,0.5,0.5,0.8,0.5h2.7v4h-12.2h-0.3c-3.5-0.3-6.1-3.3-5.8-6.8
	C360.1,159.8,362.8,157.3,366.1,157.2L366.1,157.2z"/>
<path class="st0" d="M157.8,310.5h13.4v9.6h55.1v-9.6h12.9v-71.8h-81.3V310.5z M222.8,316.6h-48.1v-6.1h48.2L222.8,316.6z
	 M161.2,242.2h74.5v31h-74.5V242.2z M161.2,278.9h74.5v28.2h-74.5V278.9z"/>
<rect x="177.1" y="254.9" class="st0" width="8.1" height="5.7"/>
<rect x="194.8" y="254.9" class="st0" width="8.1" height="5.7"/>
<rect x="212.4" y="254.9" class="st0" width="8.1" height="5.7"/>
<rect x="177.1" y="289.8" class="st0" width="8.1" height="5.6"/>
<rect x="194.8" y="289.8" class="st0" width="8.1" height="5.6"/>
<rect x="212.4" y="289.8" class="st0" width="8.1" height="5.6"/>
<path class="st0" d="M190.7,192.9c-1-0.3-2.1-0.5-3.2-0.5c-5.5,0-10.1,4.3-10.4,9.9c-6.1-1.1-11.9,3-13,9.1
	c-0.1,0.7-0.2,1.4-0.2,2.1c0,5.6,4.1,10.4,9.6,11.3h20v4.4c0,0.9,0.7,1.6,1.6,1.6h8.2c0.9,0,1.6-0.7,1.6-1.6v-4.4h12.9
	c8.5-0.1,15.4-7,15.3-15.5c-0.1-8.3-6.6-15-14.9-15.3c-1.8-7.7-9.5-12.4-17.2-10.6C196.2,184.5,192.3,188.1,190.7,192.9L190.7,192.9
	z M204.6,215.4c-0.6,0-1.2,0.5-1.2,1.2v12.5c0,0.1-0.1,0.2-0.2,0.2h0H195c-0.1,0-0.2-0.1-0.2-0.2v0v-12.5c0-0.6-0.5-1.2-1.2-1.2
	h-4.1l9.5-11.4c0.1-0.1,0.1-0.1,0.1,0l9.5,11.4H204.6z M204.3,184.6c6.1,0,11.3,4.3,12.4,10.3l0.1,0.7h1c7.6,0.2,13.5,6.5,13.3,14.1
	c-0.2,7.3-6,13.1-13.3,13.3h-12.9v-6.1h4.2c0.7,0.1,1.3-0.4,1.3-1.1c0-0.4-0.1-0.7-0.3-1l-9.7-11.7c-0.5-0.6-1.5-0.7-2.1-0.2
	c-0.1,0.1-0.1,0.1-0.2,0.2l-9.7,11.7c-0.3,0.4-0.4,0.9-0.2,1.4c0.2,0.4,0.7,0.7,1.2,0.7h4.2v6.1h-18.7h-0.4
	c-5.3-0.5-9.2-5.2-8.7-10.4c0.4-4.9,4.5-8.7,9.4-8.8c0.9,0,1.7,0.1,2.5,0.4l1.1,0.3v-1.2c0-0.1,0-0.2,0-0.4c0-4.9,3.9-8.8,8.8-8.8
	c1.2,0,2.4,0.2,3.5,0.7l0.9,0.4l0.2-1C193.5,188.6,198.5,184.7,204.3,184.6z"/>
<path class="st0" d="M54.5,179.6H0v48.2h8.8v6.3h37.3v-6.3h8.4v-36.1h5.2v-1.7h-5.2L54.5,179.6z M42.6,230.6H12.2v-2.8h30.4V230.6z
	 M51,224.3H3.4v-16.9H51V224.3z M51,201.7H3.4V183H51V201.7z"/>
<rect x="13.2" y="190.8" class="st0" width="5.3" height="3.7"/>
<rect x="24.8" y="190.8" class="st0" width="5.3" height="3.7"/>
<rect x="36.4" y="190.8" class="st0" width="5.3" height="3.7"/>
<rect x="13.2" y="213.6" class="st0" width="5.3" height="3.7"/>
<rect x="24.8" y="213.6" class="st0" width="5.3" height="3.7"/>
<rect x="36.4" y="213.6" class="st0" width="5.3" height="3.7"/>
<path class="st0" d="M10.9,171h13v2.9c0,0.6,0.5,1.1,1.1,1.1h5.4c0.6,0,1.1-0.5,1.1-1.1V171h8.5c5.6,0.1,10.2-4.4,10.2-9.9
	c0.1-5.6-4.4-10.2-9.9-10.2c-1.2-5-6.3-8.1-11.3-6.9c-3.2,0.8-5.7,3.1-6.7,6.2c-0.7-0.2-1.4-0.3-2.1-0.3c-3.6,0-6.6,2.8-6.9,6.5
	c-0.4-0.1-0.8-0.1-1.3-0.1c-4.1,0-7.4,3.3-7.4,7.4C4.6,167.2,7.3,170.4,10.9,171z M31.3,164.9c-0.4,0-0.8,0.3-0.8,0.8l0,0v8.2
	c0,0.1-0.1,0.1-0.1,0.1c0,0,0,0,0,0H25c-0.1,0-0.1-0.1-0.1-0.1l0,0v-8.2c0-0.4-0.3-0.8-0.8-0.8l0,0h-2.7l6.2-7.5c0,0,0.1,0,0.1,0
	l6.2,7.5H31.3z M11.9,157.2c0.6,0,1.1,0.1,1.7,0.2l0.7,0.2v-0.8v-0.2c0-3.2,2.5-5.8,5.7-5.8c0,0,0,0,0,0c0.8,0,1.6,0.2,2.3,0.5
	l0.6,0.3l0.2-0.6c1.1-4.4,5.6-7.1,10-6c3.1,0.8,5.5,3.3,6.1,6.5l0.1,0.5h0.6c5,0.4,8.6,4.8,8.2,9.7c-0.4,4.4-3.8,7.9-8.2,8.2h-8.4
	v-4h2.7c0.4,0,0.8-0.3,0.9-0.7c0-0.2-0.1-0.5-0.2-0.6l-6.4-7.6c-0.4-0.4-1-0.5-1.4-0.1c0,0-0.1,0.1-0.1,0.1l-6.4,7.6
	c-0.3,0.3-0.3,0.8,0,1.1c0.2,0.2,0.4,0.2,0.6,0.2h2.7v4H11.7h-0.3c-3.5-0.1-6.2-3-6.1-6.5C5.5,159.8,8.4,157.1,11.9,157.2z"/>
<rect x="270.8" y="157.6" class="st0" width="1.7" height="6.9"/>
<rect x="335.1" y="189.9" class="st0" width="6.9" height="1.7"/>
<rect x="270.8" y="171.4" class="st0" width="1.7" height="6.9"/>
<rect x="293.7" y="189.9" class="st0" width="6.9" height="1.7"/>
<rect x="307.5" y="189.9" class="st0" width="6.9" height="1.7"/>
<rect x="279.9" y="189.9" class="st0" width="6.9" height="1.7"/>
<polygon class="st0" points="272.6,185.2 270.8,185.2 270.8,191.6 273,191.6 273,189.9 272.6,189.9 "/>
<rect x="321.3" y="189.9" class="st0" width="6.9" height="1.7"/>
<rect x="94.2" y="189.9" class="st0" width="6.9" height="1.7"/>
<rect x="66.6" y="189.9" class="st0" width="6.9" height="1.7"/>
<rect x="80.4" y="189.9" class="st0" width="6.9" height="1.7"/>
<polygon class="st0" points="125.4,189.9 121.8,189.9 121.8,191.6 127.1,191.6 127.1,188.4 125.4,188.4 "/>
<rect x="108" y="189.9" class="st0" width="6.9" height="1.7"/>
<rect x="125.4" y="174.6" class="st0" width="1.7" height="6.9"/>
<rect x="125.4" y="160.8" class="st0" width="1.7" height="6.9"/>
<path class="st0" d="M210.1,47l0.3,0.8c4-2.9,4.9-8.4,2-12.4c-0.4-0.5-0.8-1-1.3-1.4l-0.3,0.8c1.4,1.3,2.2,3.1,2.4,5
	C213.5,42.6,212.3,45.3,210.1,47z"/>
<path class="st0" d="M217.4,39.3c0.5,4.7-1.8,9.3-5.8,11.8l0.3,0.8c6.3-3.8,8.3-11.9,4.5-18.1c-0.9-1.5-2.2-2.9-3.6-3.9l-0.3,0.8
	C215.3,32.7,217,35.9,217.4,39.3z"/>
<path class="st0" d="M188.1,47.8l0.3-0.8c-2.2-1.7-3.4-4.4-3.1-7.2c0.2-1.9,1-3.7,2.4-5l-0.3-0.8c-3.7,3.3-3.9,8.9-0.7,12.6
	C187.1,47,187.6,47.4,188.1,47.8L188.1,47.8z"/>
<path class="st0" d="M186.6,51.9l0.3-0.8c-5.8-3.6-7.6-11.3-4-17.1c0.8-1.3,1.9-2.5,3.2-3.4l-0.3-0.8c-5.9,4.2-7.3,12.5-3.1,18.4
	C183.7,49.8,185.1,51,186.6,51.9L186.6,51.9z"/>
<rect x="198.8" y="162.2" class="st0" width="1.7" height="6.9"/>
<rect x="198.8" y="176" class="st0" width="1.7" height="6.9"/>
</svg>
