<svg xmlns="http://www.w3.org/2000/svg" viewBox="0 0 37.58 43.16">
  <defs>
    <style>
      .cls-1 {
        fill: #459f71;
      }

      .cls-2 {
        fill: none;
      }
    </style>
  </defs>
  <g id="Layer_2" data-name="Layer 2">
    <g id="Layer_1-2" data-name="Layer 1">
      <g>
        <rect class="cls-1" x="2.92" y="25.98" width="1.39" height="17.18"/>
        <rect class="cls-1" x="11.97" y="25.98" width="1.39" height="17.18"/>
        <rect class="cls-1" x="7.45" y="29.72" width="1.39" height="13.44"/>
        <path class="cls-1" d="M4,29.06H0V15.69a4.22,4.22,0,0,1,4.22-4.22h7.19v1.39H4.22a2.83,2.83,0,0,0-2.83,2.83v12H4Z"/>
        <path class="cls-1" d="M16.28,29.06h-4V27.67h2.59v-12a2.83,2.83,0,0,0-2.82-2.83H4.64V11.47h7.43a4.22,4.22,0,0,1,4.21,4.22Z"/>
        <path class="cls-1" d="M8.14,1.39a3,3,0,1,0,3,3,3.05,3.05,0,0,0-3-3m0,7.47a4.43,4.43,0,1,1,4.43-4.43A4.44,4.44,0,0,1,8.14,8.86"/>
        <path class="cls-1" d="M33.23,7.16a2.95,2.95,0,1,0,3,2.95,2.95,2.95,0,0,0-3-2.95m0,7.29a4.34,4.34,0,1,1,4.35-4.34,4.35,4.35,0,0,1-4.35,4.34"/>
        <path class="cls-1" d="M33.23,19.5a2.95,2.95,0,1,0,3,2.95,3,3,0,0,0-3-2.95m0,7.29a4.34,4.34,0,1,1,4.35-4.34,4.35,4.35,0,0,1-4.35,4.34"/>
        <path class="cls-1" d="M33.23,31.84a2.95,2.95,0,1,0,3,2.95,3,3,0,0,0-3-2.95m0,7.29a4.34,4.34,0,1,1,4.35-4.34,4.34,4.34,0,0,1-4.35,4.34"/>
        <rect class="cls-2" width="37.58" height="43.16"/>
        <polygon class="cls-1" points="30.28 35.49 22.29 35.49 22.29 9.41 30.28 9.41 30.28 10.8 23.69 10.8 23.69 34.1 30.28 34.1 30.28 35.49"/>
        <rect class="cls-1" x="16.73" y="21.76" width="13.56" height="1.39"/>
      </g>
    </g>
  </g>
</svg>
