<?xml version="1.0" encoding="utf-8"?>
<!-- Generator: Adobe Illustrator 26.0.1, SVG Export Plug-In . SVG Version: 6.00 Build 0)  -->
<svg version="1.1" id="Layer_1" xmlns="http://www.w3.org/2000/svg" xmlns:xlink="http://www.w3.org/1999/xlink" x="0px" y="0px"
	 viewBox="0 0 340.1 208.5" style="enable-background:new 0 0 340.1 208.5;" xml:space="preserve">
<style type="text/css">
	.st0{fill:#009863;}
</style>
<path class="st0" d="M238.9,27.7H101.4v-5.3H78.8v17h22.6v-5.3h137.5c18.5,0.3,33.3,15.5,33,34c-0.3,18.1-14.9,32.7-33,33h-196
	c-22.1-0.3-40.2,17.3-40.5,39.4s17.3,40.2,39.4,40.5c0.4,0,0.8,0,1.1,0h144.6v5.3h22.6v-17h-22.6v5.3H42.9
	c-18.5,0.3-33.7-14.5-34-33s14.5-33.7,33-34c0.3,0,0.7,0,1,0h196c22.1-0.3,39.7-18.5,39.4-40.5C278,45.4,260.5,28,238.9,27.7z"/>
<path class="st0" d="M70.6,41.9c1,0.3,2-0.3,2.2-1.3v-1.1c-0.2-0.6-0.6-1-1.2-1.2c-2.5-0.7-4.5-2.5-5.3-5c-0.3-0.8-0.4-1.7-0.4-2.6
	c0.1-3.6,2.6-6.7,6.1-7.6c1-0.3,1.6-1.2,1.3-2.2l0,0v-0.1c-0.3-0.8-1.2-1.3-2.1-1.1h-0.1c-5.1,1.3-8.8,5.8-8.9,11
	c0,1.3,0.1,2.6,0.6,3.9C64,38.3,67,41,70.6,41.9z"/>
<path class="st0" d="M216.7,166.7c-1-0.3-2,0.3-2.2,1.3v1.1c0.2,0.6,0.6,1,1.2,1.2c2.5,0.7,4.5,2.5,5.3,5c0.3,0.8,0.5,1.7,0.4,2.6
	c-0.1,3.6-2.6,6.7-6.1,7.6c-1,0.3-1.5,1.3-1.3,2.2l0,0v0.1c0.3,0.8,1.2,1.3,2.1,1.1h0.1c5.1-1.3,8.8-5.8,8.9-11
	c0-1.3-0.2-2.6-0.6-3.9C223.3,170.4,220.3,167.6,216.7,166.7z"/>
</svg>
