<svg xmlns="http://www.w3.org/2000/svg" xmlns:xlink="http://www.w3.org/1999/xlink" viewBox="0 0 44.28 44.02">
  <defs>
    <style>
      .cls-1 {
        fill: none;
      }

      .cls-2 {
        clip-path: url(#clip-path);
      }

      .cls-3 {
        fill: #459f71;
      }
    </style>
    <clipPath id="clip-path" transform="translate(0 0)">
      <rect class="cls-1" width="44.28" height="44.02"/>
    </clipPath>
  </defs>
  <g id="Layer_2" data-name="Layer 2">
    <g id="Layer_1-2" data-name="Layer 1">
      <g class="cls-2">
        <path class="cls-3" d="M19.45,28.45l-2.13,6.28A1.5,1.5,0,0,1,15.56,36c-.66-.16-.8-1.24-.83-1.57a35.77,35.77,0,0,1,1.35-4.54A2.16,2.16,0,0,0,14.51,27l-3.26-1h0a1.71,1.71,0,0,0-2.1,1.48l-1.48,14A1.7,1.7,0,0,1,6,42.94H6a1.7,1.7,0,0,1-1.69-1.88l1.2-15.14a26.85,26.85,0,0,0-.14-5.86,18.26,18.26,0,0,0-1.68-5.82c-1.55-3.23,2.53-4,3.9-3.69l5.2.57a2.13,2.13,0,0,0,2.42-1.46l1.46-3.32,0-.06a1.73,1.73,0,0,1,2.09-1.16c-2.78,7.42-2.64,7.25-3.07,7.71-1.38,1.52-4.41.07-5.6,1.45-.65.75-.45,1,.18,6.51a1.86,1.86,0,0,0,1.31,1.57l6.59,2.44c.53.21,2.16.83,1.31,3.65m-8.8-24a.09.09,0,0,1-.09-.09V4.07A.09.09,0,0,1,10.65,4h3.81v.5ZM22.52,5H19.79a1.26,1.26,0,0,0-.13-.37A1.09,1.09,0,0,0,19,4.06a2.81,2.81,0,0,0-2.8.9h-.58V3.49h7Zm10-1.88v2.3a.22.22,0,0,1-.21.21h-.91V2.87h.91a.21.21,0,0,1,.21.21m-9-.21h6.76V5.59H23.6ZM18.52,23.79l-6.61-2.45h0a.77.77,0,0,1-.56-.66c-.65-5.64-.7-5.38-.44-5.69.62-.72,3.9.43,5.58-1.42.6-.66.55-.76,3.07-7.52h3v.63h9.83a1.29,1.29,0,0,0,1.29-1.29V3.08a1.29,1.29,0,0,0-1.29-1.29H22.52v.62H14.46V2.9H10.65A1.17,1.17,0,0,0,9.48,4.07v.32a1.17,1.17,0,0,0,1.17,1.17h3.81V6h1.11L14.16,9.26l0,.06a1.07,1.07,0,0,1-1.22.74l-5.2-.57c-1.95-.35-7.2.75-5.06,5.21a17.13,17.13,0,0,1,1.59,5.49,26,26,0,0,1,.14,5.63L3.19,41A2.77,2.77,0,0,0,6,44H6a2.77,2.77,0,0,0,2.76-2.47l1.48-14A.63.63,0,0,1,11,27l3.26,1,0,0a1.08,1.08,0,0,1,.8,1.41,29.06,29.06,0,0,0-1.41,5c.12,1.39.72,2.31,1.66,2.53a2.5,2.5,0,0,0,3-2l2.13-6.26c.73-2.46,0-4.23-2-5" transform="translate(0 0)"/>
        <path class="cls-3" d="M1.08,4.52A3.44,3.44,0,1,1,4.52,8,3.44,3.44,0,0,1,1.08,4.52m8,0A4.52,4.52,0,1,0,4.52,9,4.52,4.52,0,0,0,9,4.52" transform="translate(0 0)"/>
        <path class="cls-3" d="M18.45,42.94H13.89V39.65a.9.9,0,0,1,.91-.9h2.74a.9.9,0,0,1,.91.9Zm-.91-5.27H14.8a2,2,0,0,0-2,2V44h6.72V39.65a2,2,0,0,0-2-2" transform="translate(0 0)"/>
        <path class="cls-3" d="M26.7,42.94H22.15V32a.9.9,0,0,1,.9-.9H25.8a.9.9,0,0,1,.9.9ZM25.8,30H23.05a2,2,0,0,0-2,2V44h6.71V32a2,2,0,0,0-2-2" transform="translate(0 0)"/>
        <path class="cls-3" d="M35,42.94H30.4V23.35a.9.9,0,0,1,.9-.9h2.75a.91.91,0,0,1,.9.9Zm-.9-21.57H31.3a2,2,0,0,0-2,2V44H36V23.35a2,2,0,0,0-2-2" transform="translate(0 0)"/>
        <path class="cls-3" d="M43.2,42.94H38.65V14.6a.9.9,0,0,1,.9-.9H42.3a.91.91,0,0,1,.9.9Zm-.9-30.32H39.55a2,2,0,0,0-2,2V44h6.71V14.6a2,2,0,0,0-2-2" transform="translate(0 0)"/>
      </g>
    </g>
  </g>
</svg>
