<?xml version="1.0" encoding="utf-8"?>
<!-- Generator: Adobe Illustrator 26.0.1, SVG Export Plug-In . SVG Version: 6.00 Build 0)  -->
<svg version="1.1" id="Layer_1" xmlns="http://www.w3.org/2000/svg" xmlns:xlink="http://www.w3.org/1999/xlink" x="0px" y="0px"
	 viewBox="0 0 792 612" style="enable-background:new 0 0 792 612;" xml:space="preserve">
<style type="text/css">
	.st0{fill:#3F966A;}
	.st1{fill:#3F966A;stroke:#000000;stroke-width:2;stroke-miterlimit:10;}
	.st2{fill:#3F966A;stroke:#000000;stroke-width:8;stroke-miterlimit:10;}
</style>
<g>
	<rect x="342.3" y="485.8" class="st0" width="76.9" height="8"/>
	<path class="st0" d="M384.9,489.8h-8V209.1l0-0.2c0-0.2,1.7-20-10.6-33.6c-8.1-8.9-20.4-13.3-36.7-13.3v-8c18.7,0,33,5.4,42.7,16
		c14.2,15.6,12.9,37,12.7,39.5V489.8z"/>
	<path class="st0" d="M445.5,340.4h-56.9c-6.4,0-11.7-5.2-11.7-11.7V224.1c0-6.4,5.2-11.7,11.7-11.7h56.9c6.4,0,11.7,5.2,11.7,11.7
		v104.6c0,3.1-1.2,6-3.4,8.2C451.6,339.2,448.7,340.4,445.5,340.4z M388.7,220.4c-2,0-3.7,1.6-3.7,3.7v104.6c0,2,1.6,3.7,3.7,3.7
		h56.9c1,0,1.9-0.4,2.6-1.1c0.7-0.7,1.1-1.6,1.1-2.6V224.1c0-2-1.6-3.7-3.7-3.7H388.7z"/>
	<path class="st1" d="M449,418"/>
	<path class="st2" d="M232.3,229.4"/>
	<path class="st0" d="M331.6,195.4l-124.7-25l1.3-4.2c8.1-26.1,29.6-29.1,30.6-29.2l0.5,0h69.7l0.4,0.1c12,2.2,20.3,7.7,24.8,16.3
		c8.7,16.5-0.9,38.2-1.3,39.2L331.6,195.4z M217.3,164.4l109.3,21.9c2-5.9,5.6-19.3,0.3-29.3c-3.2-6.2-9.6-10.2-18.8-12h-68.7
		C237.6,145.3,224.3,148.1,217.3,164.4z"/>
	<g>
		<g>
			<path class="st0" d="M450.5,104.6c32.8,0,63.6,12.8,86.9,36s36,54,36,86.9l0,0h6.7l0,0c0-34.6-13.5-67.1-37.9-91.6
				s-57-37.9-91.6-37.9l0,0V104.6L450.5,104.6z"/>
			<path class="st0" d="M581,228.5h-8.7v-1c0-32.6-12.7-63.1-35.7-86.1c-23-23-53.6-35.7-86.1-35.7h-1v-8.7h1
				c34.9,0,67.7,13.6,92.3,38.2c24.7,24.7,38.2,57.4,38.2,92.3V228.5z M574.3,226.5h4.7c-0.3-34-13.6-65.9-37.6-89.9
				c-24-24-55.9-37.4-89.9-37.6v4.7c32.7,0.3,63.4,13.1,86.6,36.3C561.2,163,574,193.7,574.3,226.5z"/>
		</g>
		<g>
			<path class="st0" d="M450.5,138.7c49,0,88.8,39.8,88.8,88.8l0,0h6.7l0,0c0-52.7-42.8-95.5-95.5-95.5l0,0L450.5,138.7L450.5,138.7
				z"/>
			<path class="st0" d="M547,228.5h-8.7v-1c0-48.4-39.4-87.8-87.8-87.8h-1V131h1c53.2,0,96.5,43.3,96.5,96.5V228.5z M540.3,226.5
				h4.7c-0.5-51.3-42.2-93-93.5-93.5v4.7C500.2,138.2,539.7,177.7,540.3,226.5z"/>
		</g>
		<g>
			<path class="st0" d="M450.5,165.6c34.1,0,61.8,27.7,61.8,61.8l0,0h6.7l0,0c0-37.8-30.7-68.5-68.5-68.5l0,0V165.6L450.5,165.6z"/>
			<path class="st0" d="M520,228.4h-8.7v-1c0-33.5-27.3-60.8-60.8-60.8h-1v-8.7h1c38.3,0,69.5,31.2,69.5,69.5V228.4z M513.3,226.4
				h4.7c-0.5-36.4-30.1-66-66.5-66.5v4.7C485.3,165.2,512.7,192.6,513.3,226.4z"/>
		</g>
		<g>
			<path class="st0" d="M450.5,192.8c19.1,0,34.7,15.6,34.7,34.7l0,0h6.7l0,0c0-22.8-18.6-41.4-41.4-41.4l0,0V192.8L450.5,192.8z"/>
			<path class="st0" d="M492.9,228.5h-8.7v-1c0-18.6-15.1-33.7-33.7-33.7h-1V185h1c23.4,0,42.4,19,42.4,42.4V228.5z M486.1,226.5
				h4.7c-0.5-21.5-17.9-38.9-39.4-39.4v4.7C470.4,192.3,485.6,207.6,486.1,226.5z"/>
		</g>
	</g>
</g>
</svg>
