<svg xmlns="http://www.w3.org/2000/svg" viewBox="0 0 37.13 47.6">
  <defs>
    <style>
      .cls-1 {
        fill: #459f71;
      }
    </style>
  </defs>
  <g id="Layer_2" data-name="Layer 2">
    <g id="Layer_1-2" data-name="Layer 1">
      <path class="cls-1" d="M33.56,47.6A.56.56,0,0,1,33,47V30.54a.56.56,0,1,1,1.12,0v6.87A2.44,2.44,0,0,0,36,35V28.29a2.44,2.44,0,0,0-2.44-2.44.56.56,0,0,1-.56-.56.57.57,0,0,1,.56-.57,3.56,3.56,0,0,1,3.56,3.57V35a3.56,3.56,0,0,1-3,3.51V47A.56.56,0,0,1,33.56,47.6Zm-3,0A.56.56,0,0,1,30,47V38a.56.56,0,1,1,1.12,0v9A.56.56,0,0,1,30.56,47.6Zm-3,0A.56.56,0,0,1,27,47V38.79a.56.56,0,1,1,1.12,0V47A.56.56,0,0,1,27.56,47.6Zm-5.25,0a.56.56,0,0,1-.56-.56V29.79a.57.57,0,0,1,.56-.57.58.58,0,0,1,.57.57v7.72a.53.53,0,0,1,.18,0A2.43,2.43,0,0,0,25.5,35V26.79a2.44,2.44,0,0,0-2.44-2.44.56.56,0,0,1-.56-.56.57.57,0,0,1,.56-.57,3.56,3.56,0,0,1,3.56,3.57V35a3.56,3.56,0,0,1-3.56,3.56.52.52,0,0,1-.18,0V47A.57.57,0,0,1,22.31,47.6Zm-3.75,0A.56.56,0,0,1,18,47V38a.56.56,0,1,1,1.12,0v9A.56.56,0,0,1,18.56,47.6Zm-3.75,0a.56.56,0,0,1-.56-.56V38.57a.58.58,0,0,1-.19,0A3.57,3.57,0,0,1,10.5,35V26.79a3.57,3.57,0,0,1,3.56-3.57.57.57,0,0,1,.56.57.56.56,0,0,1-.56.56,2.44,2.44,0,0,0-2.44,2.44V35a2.44,2.44,0,0,0,2.44,2.43.58.58,0,0,1,.19,0V29.79a.57.57,0,0,1,.56-.57.58.58,0,0,1,.57.57V47A.57.57,0,0,1,14.81,47.6Zm-5.25,0A.56.56,0,0,1,9,47V38.79a.56.56,0,1,1,1.12,0V47A.56.56,0,0,1,9.56,47.6Zm-3,0A.56.56,0,0,1,6,47V38a.56.56,0,1,1,1.12,0v9A.56.56,0,0,1,6.56,47.6Zm-3,0A.56.56,0,0,1,3,47V38.55A3.56,3.56,0,0,1,0,35V28.29a3.57,3.57,0,0,1,3.56-3.57.57.57,0,0,1,.56.57.56.56,0,0,1-.56.56,2.44,2.44,0,0,0-2.44,2.44V35A2.45,2.45,0,0,0,3,37.41V30.54a.56.56,0,1,1,1.12,0V47A.56.56,0,0,1,3.56,47.6ZM29.81,25.1a3.57,3.57,0,1,1,3.57-3.56A3.57,3.57,0,0,1,29.81,25.1Zm0-6a2.44,2.44,0,1,0,2.44,2.44A2.43,2.43,0,0,0,29.81,19.1Zm-22.5,6a3.57,3.57,0,1,1,3.57-3.56A3.57,3.57,0,0,1,7.31,25.1Zm0-6a2.44,2.44,0,1,0,2.44,2.44A2.43,2.43,0,0,0,7.31,19.1Zm11.25,4.5a4.32,4.32,0,1,1,4.32-4.31A4.32,4.32,0,0,1,18.56,23.6Zm0-7.5a3.19,3.19,0,1,0,3.19,3.19A3.18,3.18,0,0,0,18.56,16.1Zm5.87-.81a.56.56,0,0,1-.27-1.06l3.14-1.66a.53.53,0,0,1,.52,0L30,13.69l-.4-2.38a.56.56,0,0,1,.16-.49l1.72-1.69-2.38-.35a.54.54,0,0,1-.42-.31L27.06,5.28a.57.57,0,0,1,.25-.75.58.58,0,0,1,.76.26l1.44,2.92,3.21.47a.55.55,0,0,1,.45.38.54.54,0,0,1-.14.58L30.7,11.41l.55,3.22a.56.56,0,0,1-.22.55.57.57,0,0,1-.59,0L27.56,13.7l-2.87,1.52A.54.54,0,0,1,24.43,15.29Zm-11.73,0a.48.48,0,0,1-.26-.07L9.56,13.7,6.69,15.22a.57.57,0,0,1-.59,0,.55.55,0,0,1-.23-.55l.55-3.22L4.09,9.14A.58.58,0,0,1,4,8.56a.57.57,0,0,1,.46-.38l3.21-.47L9.06,4.79a.56.56,0,0,1,1,.49L8.5,8.47a.54.54,0,0,1-.43.31l-2.38.35,1.73,1.69a.56.56,0,0,1,.16.49l-.41,2.38L9.3,12.57a.53.53,0,0,1,.52,0L13,14.23a.56.56,0,0,1,.24.76A.57.57,0,0,1,12.7,15.29Zm9.83-2a.58.58,0,0,1-.26-.06L18.56,11.3l-3.7,1.95a.57.57,0,0,1-.6-.05.55.55,0,0,1-.22-.55l.71-4.12-3-2.93A.55.55,0,0,1,11.61,5a.56.56,0,0,1,.45-.39L16.21,4,18.06.29a.58.58,0,0,1,1,0L20.92,4l4.14.6a.59.59,0,0,1,.46.39.57.57,0,0,1-.14.57l-3,2.93.7,4.12a.55.55,0,0,1-.22.55A.57.57,0,0,1,22.53,13.31Zm-4-3.21a.58.58,0,0,1,.26.06l3,1.56-.56-3.29a.57.57,0,0,1,.16-.5l2.39-2.34-3.3-.48a.55.55,0,0,1-.43-.3l-1.48-3-1.48,3a.55.55,0,0,1-.42.3l-3.31.48,2.4,2.34a.57.57,0,0,1,.16.5l-.57,3.29,3-1.56A.58.58,0,0,1,18.56,10.1Z"/>
    </g>
  </g>
</svg>
