<svg width="208" height="50" viewBox="0 0 208 50" fill="none" xmlns="http://www.w3.org/2000/svg">
<g clip-path="url(#clip0)">
<g filter="url(#filter0_d)">
<path d="M0 31.7711H6.21046C7.47556 31.7711 8.56814 31.9149 9.51696 32.2024C10.4658 32.49 11.2708 32.8637 11.9896 33.3525C12.6797 33.8413 13.2547 34.3876 13.7148 34.9914C14.1748 35.6239 14.5486 36.2565 14.8074 36.889C15.0661 37.5503 15.2674 38.1829 15.3824 38.8442C15.4974 39.5055 15.5549 40.1093 15.5549 40.6556C15.5549 41.8057 15.3536 42.8982 14.9224 43.9621C14.4911 45.0259 13.8873 45.9747 13.0535 46.8085C12.2197 47.6424 11.2133 48.3037 10.0057 48.7924C8.79816 49.2812 7.3893 49.54 5.80793 49.54H0V31.7711ZM2.41518 47.2973H5.46291C6.49799 47.2973 7.44681 47.1536 8.36688 46.8948C9.28694 46.6073 10.092 46.2047 10.7533 45.6585C11.4434 45.1122 11.9896 44.4221 12.3922 43.5883C12.7947 42.7545 12.996 41.8057 12.996 40.6843C12.996 40.1093 12.9097 39.448 12.7085 38.7004C12.5359 37.9529 12.1622 37.2053 11.6734 36.5153C11.1558 35.8252 10.4658 35.2502 9.54571 34.7614C8.6544 34.2726 7.47556 34.0426 6.03795 34.0426H2.41518V47.2973Z" fill="white"/>
<path d="M20.2703 31.7711H22.6854V49.5687H20.2703V31.7711Z" fill="white"/>
<path d="M43.9045 39.5917V48.3611C43.4732 48.6199 42.9844 48.8499 42.4094 49.0512C41.8631 49.2525 41.2881 49.425 40.6843 49.5687C40.0805 49.7125 39.4767 49.8275 38.8729 49.885C38.2691 49.9425 37.694 49.9713 37.1478 49.9713C35.6526 49.9713 34.3013 49.7125 33.1225 49.2237C31.9436 48.7349 30.9373 48.0449 30.1322 47.1823C29.3272 46.3197 28.6946 45.3422 28.2633 44.1921C27.8321 43.0707 27.6308 41.8631 27.6308 40.5981C27.6308 39.2755 27.8608 38.0391 28.3209 36.9178C28.7809 35.7677 29.4134 34.7901 30.2185 33.9563C31.0236 33.1225 32.0011 32.4612 33.1512 31.9724C34.3013 31.4836 35.5376 31.2536 36.889 31.2536C38.5279 31.2536 39.8792 31.4549 40.9143 31.8574C41.9494 32.2599 42.8119 32.835 43.5307 33.5538L41.8344 35.3939C41.0868 34.7039 40.3105 34.1863 39.5054 33.9276C38.6716 33.64 37.8091 33.525 36.9177 33.525C35.8827 33.525 34.9626 33.7263 34.1575 34.1001C33.3237 34.4738 32.6337 34.9914 32.0586 35.6239C31.4836 36.2565 31.0236 37.004 30.7073 37.8666C30.391 38.7292 30.2185 39.6492 30.2185 40.6268C30.2185 41.6331 30.391 42.5532 30.736 43.4158C31.0811 44.2783 31.5698 45.0259 32.2024 45.6584C32.8349 46.291 33.5537 46.7798 34.3876 47.1535C35.2214 47.5273 36.1414 47.6998 37.119 47.6998C37.9816 47.6998 38.7866 47.6136 39.5342 47.4698C40.3105 47.2973 40.943 47.0673 41.4893 46.7798V41.8344H38.0391V39.563H43.9045V39.5917Z" fill="white"/>
<path d="M50.0862 31.7711H52.5014V49.5687H50.0862V31.7711Z" fill="white"/>
<path d="M62.8522 34.0138H57.1306V31.7424H70.9891V34.0138H65.2674V49.54H62.8522V34.0138V34.0138Z" fill="white"/>
<path d="M79.6147 31.7711H81.7999L89.4192 49.5687H86.6015L84.8189 45.1697H76.3657L74.6118 49.5687H71.7941L79.6147 31.7711ZM83.9275 43.042L80.621 34.8764H80.5635L77.1995 43.042H83.9275Z" fill="white"/>
<path d="M93.847 31.7711H96.2622V47.2973H104.428V49.5687H93.847V31.7711V31.7711Z" fill="white"/>
<path d="M109.057 31.7711H115.986C116.648 31.7711 117.309 31.8574 117.97 32.0012C118.631 32.1737 119.206 32.4324 119.724 32.7775C120.242 33.1513 120.644 33.6113 120.96 34.1863C121.277 34.7614 121.449 35.4514 121.449 36.2565C121.449 37.2628 121.162 38.0966 120.587 38.7579C120.012 39.4192 119.264 39.8793 118.344 40.1668V40.2243C118.89 40.2818 119.408 40.4543 119.897 40.6843C120.385 40.9143 120.788 41.2306 121.104 41.6044C121.449 41.9782 121.708 42.4095 121.909 42.8982C122.11 43.387 122.197 43.9333 122.197 44.4796C122.197 45.4572 121.995 46.2622 121.622 46.8948C121.248 47.5273 120.73 48.0449 120.098 48.4474C119.465 48.8499 118.746 49.1087 117.941 49.2812C117.136 49.4537 116.302 49.54 115.469 49.54H109.057V31.7711V31.7711ZM112.22 38.9879H115.095C116.159 38.9879 116.935 38.7867 117.481 38.3842C117.999 37.9816 118.286 37.4353 118.286 36.774C118.286 35.9977 118.028 35.4227 117.481 35.0489C116.935 34.6751 116.072 34.4739 114.865 34.4739H112.248V38.9879H112.22ZM112.22 46.8373H115.124C115.526 46.8373 115.957 46.8085 116.418 46.751C116.878 46.6935 117.309 46.5785 117.683 46.406C118.056 46.2335 118.373 45.946 118.631 45.6009C118.89 45.2559 119.005 44.7959 119.005 44.1921C119.005 43.2433 118.689 42.6107 118.085 42.2369C117.481 41.8632 116.533 41.6907 115.239 41.6907H112.191V46.8373H112.22Z" fill="white"/>
<path d="M126.768 31.7711H132.95C133.812 31.7711 134.618 31.8574 135.423 32.0012C136.228 32.1737 136.918 32.4324 137.55 32.8062C138.183 33.18 138.672 33.6975 139.045 34.3588C139.419 35.0201 139.592 35.854 139.592 36.8603C139.592 38.1541 139.247 39.218 138.528 40.1093C137.809 40.9718 136.803 41.5181 135.48 41.6907L140.195 49.5687H136.371L132.26 42.0357H129.96V49.5687H126.797V31.7711H126.768ZM132.404 39.3042C132.864 39.3042 133.295 39.2755 133.755 39.2467C134.215 39.218 134.618 39.103 134.991 38.9592C135.365 38.7867 135.681 38.5567 135.911 38.2404C136.141 37.9241 136.256 37.4641 136.256 36.8603C136.256 36.3427 136.141 35.9115 135.94 35.5952C135.71 35.2789 135.451 35.0489 135.078 34.8764C134.733 34.7039 134.33 34.6176 133.899 34.5601C133.467 34.5026 133.065 34.4739 132.662 34.4739H129.931V39.3042H132.404Z" fill="white"/>
<path d="M144.968 31.7711H148.131V49.5687H144.968V31.7711V31.7711Z" fill="white"/>
<path d="M154.054 31.7711H161.07C162.248 31.7711 163.37 31.9437 164.462 32.3174C165.555 32.6912 166.504 33.2375 167.337 33.9563C168.171 34.7039 168.833 35.6239 169.35 36.7453C169.839 37.8666 170.098 39.1605 170.098 40.6843C170.098 42.2082 169.81 43.5308 169.235 44.6521C168.66 45.7735 167.913 46.6935 166.992 47.4123C166.072 48.1311 165.066 48.6774 163.945 49.0512C162.823 49.425 161.731 49.5975 160.667 49.5975H154.025V31.7711H154.054ZM159.574 46.6935C160.552 46.6935 161.501 46.5785 162.363 46.3485C163.255 46.1185 164.002 45.7735 164.664 45.2847C165.325 44.7959 165.842 44.1921 166.216 43.4158C166.59 42.6682 166.791 41.7194 166.791 40.6268C166.791 39.563 166.619 38.6429 166.302 37.8666C165.957 37.0903 165.497 36.4578 164.894 35.9977C164.29 35.5377 163.6 35.1639 162.795 34.9339C161.99 34.7039 161.098 34.5889 160.121 34.5889H157.246V46.636H159.574V46.6935Z" fill="white"/>
<path d="M189.994 48.2461C187.809 49.425 185.336 50 182.634 50C181.254 50 179.988 49.77 178.838 49.3387C177.688 48.9074 176.711 48.2749 175.877 47.4411C175.043 46.636 174.411 45.6584 173.922 44.5083C173.462 43.3583 173.232 42.0932 173.232 40.7131C173.232 39.2754 173.462 37.9816 173.922 36.8315C174.382 35.6814 175.043 34.6751 175.877 33.8413C176.711 33.0075 177.688 32.3749 178.838 31.9436C179.988 31.5124 181.254 31.2823 182.634 31.2823C183.985 31.2823 185.25 31.4549 186.458 31.7711C187.637 32.0874 188.7 32.6912 189.649 33.525L187.32 35.8827C186.745 35.3364 186.055 34.9051 185.25 34.5888C184.445 34.3013 183.582 34.1288 182.662 34.1288C181.742 34.1288 180.909 34.3013 180.161 34.6176C179.413 34.9339 178.781 35.3939 178.235 35.9689C177.688 36.544 177.286 37.234 176.998 37.9816C176.711 38.7579 176.567 39.5917 176.567 40.483C176.567 41.4319 176.711 42.3232 176.998 43.1282C177.286 43.9333 177.717 44.6233 178.235 45.2271C178.781 45.8022 179.413 46.2622 180.161 46.6072C180.909 46.9523 181.742 47.096 182.662 47.096C183.467 47.096 184.215 47.0098 184.934 46.866C185.653 46.7223 186.285 46.4922 186.831 46.176V41.9781H183.669V39.1029H189.994V48.2461V48.2461Z" fill="white"/>
<path d="M194.767 31.7711H206.555V34.6464H197.93V39.0167H205.118V41.8919H197.93V46.7223H207.015V49.5975H194.767V31.7711Z" fill="white"/>
<path d="M113.657 20.6728L109.028 22.3404V24.6406H113.657V20.6728Z" fill="white"/>
<path d="M120.73 18.1139L116.561 19.609V24.6406H120.73V18.1139Z" fill="white"/>
<path d="M127.458 15.6699L123.721 17.0213V24.6406H127.458V15.6699Z" fill="#99BCCA"/>
<path d="M134.129 13.226L130.765 14.4623V24.6406H134.129V13.226Z" fill="#99BCCA"/>
<path d="M140.886 10.7821L137.867 11.8747V24.6406H140.886V10.7821Z" fill="#59AB95"/>
<path d="M147.671 8.30939L144.968 9.28696V17.3088L147.671 16.3312V8.30939Z" fill="#59AB95"/>
<path d="M155.06 5.63541L152.674 6.52672V14.5198L155.06 13.6573V5.63541Z" fill="#009863"/>
<path d="M162.076 3.10522L159.948 3.88153V11.8746L162.076 11.0983V3.10522Z" fill="#009863"/>
<path d="M169.063 0.575043L167.194 1.23634V9.22944L169.063 8.56814V0.575043Z" fill="#22D081"/>
<path d="M149.597 20.6728L144.968 22.3404V24.6406H149.597V20.6728Z" fill="white"/>
<path d="M156.814 18.0564L152.674 19.5515V24.6406H156.814V18.0564Z" fill="white"/>
<path d="M163.686 15.5549L159.948 16.9063V24.6406H163.686V15.5549Z" fill="#99BCCA"/>
<path d="M170.558 13.0535L167.194 14.2898V24.6406H170.558V13.0535Z" fill="#99BCCA"/>
<path d="M177.631 10.4945L174.583 11.5871V24.6406H177.631V10.4945Z" fill="#59AB95"/>
<path d="M184.704 7.93558L182.001 8.91315V24.6406H184.704V7.93558Z" fill="#59AB95"/>
<path d="M192.007 5.29041L189.592 6.15297V24.6406H192.007V5.29041Z" fill="#009863"/>
<path d="M199.195 2.67395L197.096 3.45026V24.6406H199.195V2.67395Z" fill="#009863"/>
<path d="M206.555 0L204.715 0.661299V24.6406H206.555V0Z" fill="#22D081"/>
</g>
</g>
<defs>
<filter id="filter0_d" x="0" y="0" width="209.015" height="52" filterUnits="userSpaceOnUse" color-interpolation-filters="sRGB">
<feFlood flood-opacity="0" result="BackgroundImageFix"/>
<feColorMatrix in="SourceAlpha" type="matrix" values="0 0 0 0 0 0 0 0 0 0 0 0 0 0 0 0 0 0 127 0"/>
<feOffset dx="1" dy="1"/>
<feGaussianBlur stdDeviation="0.5"/>
<feColorMatrix type="matrix" values="0 0 0 0 0 0 0 0 0 0 0 0 0 0 0 0 0 0 0.5 0"/>
<feBlend mode="normal" in2="BackgroundImageFix" result="effect1_dropShadow"/>
<feBlend mode="normal" in="SourceGraphic" in2="effect1_dropShadow" result="shape"/>
</filter>
<clipPath id="clip0">
<rect width="207.015" height="50" fill="white"/>
</clipPath>
</defs>
</svg>
